<svg width="121" height="98" viewBox="0 0 121 98" fill="none" xmlns="http://www.w3.org/2000/svg">
<path d="M102.152 71.6583L104.282 90.3408C84.5933 92.3194 64.7144 93.0588 48.2346 91.5297C48.8295 82.7903 49.3134 74.3674 49.7933 65.9474C49.8766 62.3037 49.9757 58.7133 50.0789 55.1555C47.7943 54.2327 45.4264 53.4253 42.9951 52.7392C44.0184 49.6101 45.0695 46.4338 47.2073 43.636C49.3015 40.8944 52.6133 38.5195 56.7105 37.7683C56.7263 37.7624 56.7422 37.7594 56.7581 37.7535C64.3059 35.4201 72.1591 33.3971 80.0123 31.043C86.2433 33.3114 92.0459 35.8045 97.9835 38.6851C104.032 41.6219 108.803 45.7979 111.719 50.7222C114.507 55.4275 117.057 60.2483 119.362 65.2287C112.607 67.6154 108.629 69.1119 102.152 71.6583Z" fill="#40916C"/>
<path d="M72.354 36.8703L72.2003 36.9411L72.1212 37.0908C71.7903 37.7171 71.5936 38.302 71.4443 38.8539C70.4093 37.907 69.4563 36.9126 68.5932 35.8798C68.7628 34.9725 68.8779 34.0636 68.945 33.1556L68.945 33.1555C69.0634 31.5473 69.0196 29.9393 68.8167 28.3421C73.1967 28.6108 77.4112 28.2177 81.4747 27.4346C81.8136 27.3695 82.1549 27.302 82.4954 27.2313C82.4925 27.7461 82.4975 28.2457 82.5106 28.7221C82.5443 30.099 82.6377 31.3079 82.7984 32.1452C81.6677 32.6572 80.4601 33.2004 79.232 33.7528C76.8825 34.8098 74.4581 35.9004 72.354 36.8703Z" fill="#FFC5A3" stroke="#023047"/>
<path d="M82.4949 27.4041C82.4941 27.7772 82.4975 28.1418 82.5052 28.4948C80.9009 29.9468 78.8035 31.118 76.4423 31.8452C74.0956 32.5657 71.5071 32.8419 68.9765 32.661C69.053 31.2177 68.9991 29.7754 68.8169 28.3419C73.1835 28.6098 77.3857 28.2199 81.4377 27.4416C81.7882 27.4281 82.1404 27.4159 82.4949 27.4041Z" fill="#402037" stroke="#023047"/>
<path d="M83.3627 32.3729L83.6673 32.2391L83.6616 31.9065C83.6562 31.5991 83.632 31.3304 83.6087 31.0729C83.6043 31.0244 83.6 30.9762 83.5958 30.9283C83.5821 30.7708 83.5695 30.6096 83.5616 30.4325C85.3899 30.6773 86.9856 31.4539 88.0102 32.5622C88.2609 32.8339 88.5071 33.1078 88.749 33.3871L88.7495 33.3876C88.9816 33.6548 88.9943 33.941 88.8335 34.1847C87.1658 36.6799 85.0041 39.0056 82.4662 41.0982C80.6322 39.1021 77.8816 37.6244 75.0338 36.9816L74.8462 36.9393L74.6785 37.0336C73.7865 37.5355 72.9812 38.0691 72.2908 38.62C72.3584 38.1677 72.4837 37.7038 72.687 37.1848C76.2323 35.5649 79.7787 33.9474 83.3627 32.3729Z" fill="#023047" stroke="#023047"/>
<path d="M63.4349 33.9133L63.435 33.9133C64.1212 32.9293 65.3457 32.1609 66.8601 31.8675L66.8613 31.8673C67.1037 31.8197 67.3546 31.7733 67.6039 31.7272C67.7355 31.7029 67.8667 31.6786 67.996 31.6543C67.9776 32.605 67.9223 33.6783 67.8716 34.6625C67.8691 34.7111 67.8666 34.7596 67.8641 34.8078C67.8265 35.514 68.0209 36.2186 68.4537 36.8362L68.455 36.838C68.7915 37.3139 69.1597 37.7335 69.5318 38.1303C69.1331 37.9575 68.7328 37.7913 68.3354 37.6263C67.7852 37.3979 67.2405 37.1717 66.7129 36.9335L66.5581 36.8636L66.3928 36.9025C64.4229 37.3656 62.5828 38.1363 60.7933 39.2733C61.4122 37.4262 62.2684 35.586 63.4349 33.9133Z" fill="#023047" stroke="#023047"/>
<path d="M98.8529 42.8135C93.55 45.836 91.1742 51.0501 91.1345 56.0276C91.0909 61.0051 93.07 65.8524 95.0254 70.6081" stroke="#023047" stroke-miterlimit="10" stroke-linecap="round" stroke-linejoin="round"/>
<path d="M86.4902 51.0503C86.5021 55.1257 88.1323 58.8995 91.8844 61.8688" stroke="#023047" stroke-miterlimit="10" stroke-linecap="round" stroke-linejoin="round"/>
<path d="M71.3745 40.0098C70.5138 41.4146 69.3596 42.7218 68.023 43.9107C67.9556 46.7972 67.555 49.6778 66.8252 52.5111" stroke="#023047" stroke-miterlimit="10" stroke-linecap="round" stroke-linejoin="round"/>
<path d="M121 76.5233C118.458 83.7012 114.686 90.6336 109.8 97.1016C107.396 94.8687 104.992 92.6328 103.104 90.5093C104.766 87.5548 106.825 82.9973 107.908 79.7677C106.785 76.4849 106.646 74.5773 105 71.4601C104.85 71.1791 104.687 70.8834 104.509 70.5788C109.562 68.7126 111.862 67.8608 117.324 65.9414C117.76 66.9588 118.164 67.985 118.541 69.0142C119.465 71.5015 120.255 74.0154 121 76.5233Z" fill="#FFC5A3"/>
<path d="M118.541 69.0142C114.028 69.8305 109.514 70.6438 105.001 71.4601C104.85 71.1791 104.687 70.8834 104.509 70.5788C109.562 68.7126 111.862 67.8608 117.324 65.9414C117.76 66.9588 118.165 67.985 118.541 69.0142Z" fill="#402037"/>
<path d="M59.901 17.6095C61.9484 17.4468 63.8284 18.8555 64.0997 20.7559C64.371 22.6561 62.9313 24.3286 60.8839 24.4913C58.8365 24.6539 56.9565 23.2453 56.6852 21.3448C56.4139 19.4446 57.8536 17.7721 59.901 17.6095Z" fill="#F29F83"/>
<path d="M57.9355 19.6832C58.3956 19.5827 58.8954 19.6921 59.2761 19.905C59.6569 20.118 59.9345 20.4285 60.1646 20.7479C60.5454 21.2803 60.8111 21.8629 60.9459 22.4633" stroke="#D1524B" stroke-miterlimit="10" stroke-linecap="round"/>
<path d="M58.1455 22.2089C58.6056 21.6026 59.3592 21.1353 60.2119 20.9224" stroke="#D1524B" stroke-miterlimit="10" stroke-linecap="round"/>
<path d="M60.3164 21.5579V14.7557C60.3164 9.20151 66.3531 4.7002 73.8017 4.7002C81.2504 4.7002 87.287 9.20151 87.287 14.7557V21.5579C87.287 27.1121 81.2504 31.6134 73.8017 31.6134C66.3531 31.6134 60.3164 27.1092 60.3164 21.5579Z" fill="#FFC5A3"/>
<path d="M57.4998 6.22049C56.7065 5.88334 56.0402 5.38056 55.592 4.78611C57.1031 3.96688 58.9356 3.47593 60.8037 3.39313L59.6852 2.4763C61.0972 2.16872 62.5964 2.08 64.056 2.219C63.8299 1.84044 63.2667 1.39386 62.7075 0.944317C68.3277 -0.623158 74.872 -0.217981 80.0678 2.0238L79.9488 1.04783C81.6226 1.60088 82.8482 2.84895 83.0465 4.20644C83.9587 3.21863 85.3271 2.6922 86.7034 2.70699L85.7872 3.69183C87.1238 3.37242 88.6191 3.43749 89.8962 3.8752C89.0792 4.00828 88.3216 4.33065 87.7544 4.78906C88.98 4.94285 90.0747 5.57872 90.5745 6.42752C90.0826 6.41865 89.5908 6.40977 89.103 6.4009C89.694 6.43343 90.4634 6.88002 90.7926 7.42715C91.1218 7.97429 91.1099 8.59536 91.0901 9.19278C90.9909 12.1414 90.8164 15.1433 89.4956 17.9204C88.4961 18.7396 87.691 19.4021 86.8898 20.0645C85.8229 18.8549 84.9939 17.3082 84.1808 15.7377C84.0579 15.4982 83.8596 15.2852 83.7445 15.0427C82.6816 12.7507 82.2413 10.8667 81.3767 8.42383C75.7842 8.08372 68.9583 8.44749 63.5761 8.7876C62.6401 9.78428 62.2513 11.0974 61.6485 12.4963C61.2637 13.3836 61.0139 14.2974 60.883 15.2261C60.6847 16.6427 60.4983 17.7104 60.3713 19.4287C57.8885 15.0309 56.9723 12.4283 54.7154 9.75175L57.7576 9.35544C56.6391 8.61015 55.35 8.00682 53.9658 7.58094C54.9217 7.06042 56.0084 6.66708 57.4998 6.22049Z" fill="#402037"/>
<path d="M91.8447 21.2046C92.1161 19.3042 90.6763 17.6319 88.6288 17.4693C86.5812 17.3067 84.7013 18.7154 84.4299 20.6158C84.1585 22.5161 85.5983 24.1885 87.6459 24.351C89.6934 24.5136 91.5733 23.1049 91.8447 21.2046Z" fill="#FFC5A3"/>
<path d="M90.5944 19.5529C90.1343 19.4523 89.6345 19.5617 89.2538 19.7747C88.873 19.9876 88.5954 20.2982 88.3653 20.6176C87.9846 21.1499 87.7188 21.7325 87.584 22.3329" stroke="#D1524B" stroke-miterlimit="10" stroke-linecap="round"/>
<path d="M90.3799 22.0785C89.9198 21.4722 89.1662 21.0049 88.3135 20.792" stroke="#D1524B" stroke-miterlimit="10" stroke-linecap="round"/>
<path d="M74.5986 13.6584C75.5823 13.0285 76.9348 12.7298 78.2198 12.8569C79.5049 12.9841 80.7027 13.5372 81.4325 14.3386C79.3899 13.5608 77.0022 13.3006 74.5986 13.6584Z" fill="#3E1F35"/>
<path d="M68.6179 13.8065C67.6898 13.1499 66.5237 12.6324 65.2505 12.5614C63.9773 12.4904 62.605 12.9488 62.0537 13.8094C64.0567 13.1884 66.4206 13.2327 68.6179 13.8065Z" fill="#3E1F35"/>
<path d="M69.6768 14.4541C70.3114 14.9805 70.7913 15.6075 71.1919 16.4711C71.0531 18.1835 70.6128 19.8841 69.9425 21.5432C70.8904 22.0549 72.1993 22.1673 73.2821 21.8331" stroke="#D1524B" stroke-miterlimit="10" stroke-linecap="round" stroke-linejoin="round"/>
<path d="M78.4945 23.3711C75.4246 23.9922 72.2318 24.1755 69.1302 24.0927C69.0072 24.8617 69.499 25.6425 70.2328 26.1216C70.9665 26.6036 71.9065 26.8225 72.8386 26.8935C74.1475 26.994 75.5198 26.8077 76.6105 26.1985C77.7013 25.5892 78.4628 24.5245 78.4945 23.3711Z" fill="#911F34"/>
<path d="M75.2139 18.9437C75.5708 18.2102 76.4632 17.6335 77.4865 17.4738C78.5138 17.3141 79.6363 17.5773 80.3581 18.1451C78.5773 17.9352 76.6893 18.2457 75.2139 18.9437Z" fill="#402037"/>
<path d="M68.7566 18.9734C68.3877 18.2458 67.5072 17.678 66.4878 17.5124C65.4685 17.3468 64.35 17.5922 63.6123 18.1423C64.3897 17.9649 65.2305 18.0122 66.0159 18.1719C66.8012 18.3316 67.5468 18.3967 68.7566 18.9734Z" fill="#402037"/>
<path d="M14.8545 46.1141C14.6959 41.3851 16.9527 36.6294 21.0657 33.0272C19.2452 32.8497 17.6111 32.0512 16.8694 30.7174C21.0974 30.0372 25.3255 29.3569 30.2 28.7329C32.6353 34.5888 34.3249 40.6132 35.2451 46.7056C28.5976 46.886 21.9383 46.7027 14.8545 46.1141Z" fill="#402037"/>
<path d="M54.728 90.7811L52.0666 74.719C51.8326 73.3082 51.8207 71.8857 52.027 70.472C52.4751 67.4317 52.967 64.1163 53.4707 60.727C53.8316 58.3108 53.4786 55.8619 52.4236 53.561C50.8093 50.0386 49.3854 46.7203 48.0091 43.4582C47.0334 41.1454 44.6616 39.3118 41.6036 38.4837C37.0265 37.2475 32.3463 36.6441 27.6384 36.5317C24.3781 37.7975 21.1258 39.2024 17.9171 40.6752C13.336 42.7839 9.75448 45.91 7.73565 49.6335C6.06188 52.724 4.49521 55.93 2.94043 59.337C5.79614 61.4664 10.3375 64.0306 15.0415 64.9799C15.0415 74.6243 13.6375 79.9596 12.0509 89.7785C25.3221 93.2861 41.4529 94.1616 54.728 90.7811Z" fill="#EB7547"/>
<path d="M18.4199 45.5166C22.3267 51.8397 22.2553 59.4583 18.2295 65.74" stroke="#EB7547" stroke-miterlimit="10" stroke-linecap="round" stroke-linejoin="round"/>
<path d="M25.1469 53.8242C24.6115 56.3499 23.0012 58.7425 20.6016 60.5703" stroke="#EB7547" stroke-miterlimit="10" stroke-linecap="round" stroke-linejoin="round"/>
<path d="M39.2351 42.3195C39.1121 43.7893 38.3229 45.3627 36.5737 46.043C35.019 46.6522 33.1152 46.4067 31.4652 45.9661C27.2451 44.8393 23.4414 42.4171 21.375 39.4537C22.5252 38.6699 23.8539 38.0459 24.7543 37.2119C24.8574 36.576 24.9288 35.9756 24.9645 35.396V35.393C25.0319 34.4052 25.0002 33.4825 24.8891 32.5775C24.8732 32.4266 24.8534 32.2788 24.8296 32.1279C25.4087 32.3143 25.9878 32.4858 26.5668 32.6485C29.3432 33.4204 32.1553 33.9409 34.9674 34.4614C35.3482 34.5324 35.7606 34.6152 36.0105 34.8459C36.3953 35.2037 36.2128 35.7243 36.2445 36.1827C36.2842 36.7742 36.772 37.3124 37.4423 37.62C37.9064 37.7206 38.1959 37.759 38.8147 37.8951C39.2629 39.6932 39.3541 40.8526 39.2351 42.3195Z" fill="#FFC5A3"/>
<path d="M37.4429 37.6202C33.1197 38.1052 28.5307 37.2801 24.965 35.3961V35.3932C25.0324 34.4054 25.0007 33.4826 24.8896 32.5776C25.4489 32.6102 26.0081 32.6338 26.5674 32.6486C29.3438 33.4205 32.1559 33.941 34.9679 34.4616C35.3487 34.5325 35.7612 34.6154 36.0111 34.846C36.3958 35.2039 36.2133 35.7244 36.2451 36.1828C36.2847 36.7743 36.7726 37.3126 37.4429 37.6202Z" fill="#402037"/>
<path d="M15.4933 64.9415C15.4219 65.1189 15.3466 65.2993 15.2752 65.4797C14.0813 68.455 12.9708 71.6491 11.8206 74.435C10.5712 80.3589 9.67879 85.017 9.64706 91.0325C7.10865 91.7364 4.56627 92.4373 1.88507 93.4488C0.889539 87.519 0.0605892 82.3818 0.00109521 76.7507C-0.0306349 73.7755 0.627763 70.821 1.88904 67.9966C2.61883 66.367 3.38035 64.7285 4.06652 63.0842C4.40762 62.2679 4.73285 61.4457 5.01842 60.6265C8.08038 62.7559 11.6699 63.9714 15.4933 64.9415Z" fill="#FFC5A3"/>
<path d="M15.4932 64.9415C15.4218 65.1189 15.3465 65.2993 15.2751 65.4797C11.3723 65.255 7.53292 64.4357 4.06641 63.0841C4.40751 62.2679 4.73274 61.4457 5.01831 60.6265C8.08027 62.7559 11.6697 63.9714 15.4932 64.9415Z" fill="#402037"/>
<path d="M45.3354 21.2629C47.3875 21.1378 49.2203 22.5808 49.429 24.4854C49.6376 26.39 48.1431 28.0356 46.0906 28.1604C44.0384 28.2855 42.2056 26.8425 41.997 24.9379C41.7883 23.0333 43.2832 21.3877 45.3354 21.2629Z" fill="#F29F83"/>
<path d="M47.7818 23.0309C47.3059 22.9954 46.8418 23.1728 46.5205 23.4361C46.1993 23.6993 46.0049 24.0423 45.8582 24.3884C45.6162 24.9621 45.5012 25.5714 45.5171 26.1836" stroke="#D1524B" stroke-miterlimit="10" stroke-linecap="round"/>
<path d="M48.2055 25.5419C47.6026 25.0125 46.7459 24.6546 45.8535 24.5659" stroke="#D1524B" stroke-miterlimit="10" stroke-linecap="round"/>
<path d="M19.3486 28.647L17.6471 21.963C16.2589 16.5064 21.0621 11.245 28.3798 10.2069C35.6976 9.17182 42.7536 12.7534 44.1457 18.2099L45.8473 24.8939C47.2355 30.3505 42.4323 35.6119 35.1145 36.6499C27.7968 37.6851 20.7368 34.1035 19.3486 28.647Z" fill="#FFC5A3"/>
<path d="M18.5951 27.6503C21.5579 26.8518 23.3507 24.6041 24.4176 22.3948C25.4845 20.1856 26.0993 17.8107 27.8365 15.8499C29.5737 13.892 32.5365 12.3659 35.9951 13.4159C36.2886 12.9338 36.8439 12.4133 38.2162 12.9841C39.1999 13.3922 41.9564 15.6902 45.3158 22.8C47.295 19.6059 47.295 15.3619 45.0779 12.2565C43.8444 10.5323 41.9604 9.02101 39.5648 8.2284C37.1691 7.43579 34.246 7.43284 31.7988 8.59809C27.9119 7.04245 22.8866 7.20807 19.198 9.0151C15.8187 10.6713 13.7126 13.5016 12.7806 16.4355C11.8485 19.3693 11.9754 22.4303 12.261 25.4381C12.3482 26.3549 12.4553 27.2924 12.9828 28.1205C13.5103 28.9486 14.5495 29.6614 15.7751 29.7146C16.4811 29.1409 16.838 28.1235 18.5951 27.6503Z" fill="#402037"/>
<path d="M16.5223 25.8648C18.4931 25.4203 20.6928 26.5426 21.4349 28.3718C22.177 30.201 21.1811 32.0445 19.2102 32.489C17.2394 32.9335 15.0397 31.8111 14.2976 29.9819C13.5551 28.1527 14.551 26.3093 16.5223 25.8648Z" fill="#FFC5A3"/>
<path d="M15.1094 28.1797C15.5338 28.017 16.0533 28.0525 16.4817 28.2122C16.9101 28.369 17.2591 28.6351 17.5645 28.9161C18.0722 29.3863 18.4767 29.9217 18.7623 30.4924" stroke="#D1524B" stroke-miterlimit="10" stroke-linecap="round"/>
<path d="M15.9502 30.6313C16.2516 29.9718 16.8743 29.4069 17.6597 29.0786" stroke="#D1524B" stroke-miterlimit="10" stroke-linecap="round"/>
<path d="M37.7363 29.5963C35.3764 29.8743 32.9372 29.7501 30.3789 29.1733C30.1608 30.1434 30.7914 31.1785 31.8504 31.7079C32.9094 32.2373 34.3293 32.261 35.4557 31.8233C36.5822 31.3885 37.3992 30.522 37.7363 29.5963Z" fill="#911F34"/>
<path d="M35.0391 25.314C35.7014 25.9824 35.8878 26.8726 35.5229 27.6445" stroke="#D1524B" stroke-miterlimit="10" stroke-linecap="round"/>
<path d="M29.8194 21.3863C28.8516 20.848 27.4674 20.7623 26.3965 21.1734C25.3217 21.5845 24.6117 22.4747 24.6395 23.3737C25.7341 22.3327 27.4872 21.6909 29.8194 21.3863Z" fill="#3E1F35"/>
<path d="M37.209 20.7918C37.5937 19.9814 38.6725 19.3781 39.8267 19.3337C40.9809 19.2894 42.1351 19.804 42.6309 20.5818C40.8936 20.1293 38.9184 20.2032 37.209 20.7918Z" fill="#3E1F35"/>
<g opacity="0.549">
<path d="M26.2895 30.0548C27.6958 30.0548 28.8358 29.459 28.8358 28.7239C28.8358 27.9889 27.6958 27.3931 26.2895 27.3931C24.8832 27.3931 23.7432 27.9889 23.7432 28.7239C23.7432 29.459 24.8832 30.0548 26.2895 30.0548Z" fill="#F58682"/>
<path d="M41.2119 25.5458C42.541 25.2033 43.8796 25.4887 44.2016 26.1834C44.5237 26.8781 43.7074 27.7189 42.3784 28.0614C41.0493 28.4039 39.7106 28.1185 39.3886 27.4238C39.0665 26.7291 39.8828 25.8882 41.2119 25.5458Z" fill="#F58682"/>
</g>
<path d="M37.324 25.2843C37.3002 24.6041 37.8475 23.9298 38.6646 23.6311C39.4856 23.3324 40.5327 23.4211 41.2387 23.85C39.8703 23.9505 38.5535 24.4296 37.324 25.2843Z" fill="#402037"/>
<path d="M30.7871 25.8695C30.2517 25.5176 29.6488 25.1952 28.9507 24.9853C28.2527 24.7753 27.4396 24.6865 26.6899 24.8078C25.9403 24.9291 25.2661 25.281 25.0439 25.7512C26.5829 25.4762 28.2765 25.5501 30.7871 25.8695Z" fill="#402037"/>
</svg>
