<svg width="121" height="98" viewBox="0 0 121 98" fill="none" xmlns="http://www.w3.org/2000/svg">
<path d="M45.5671 40.8522L52.2643 39.5605L65.1118 42.5084L71.6236 43.8661L71.7179 52.7632L57.1921 55.4377L47.3899 52.5338L43.6846 47.0811L45.5671 40.8522Z" fill="#FFBE9D"/>
<path d="M40.8115 41.7382L47.1316 40.2485C47.1316 40.2485 51.6006 54.0766 62.6285 53.4701C71.6167 52.9829 71.6261 43.8658 71.6261 43.8658L78.1976 45.0255C78.1976 45.0255 80.9538 61.7103 77.9336 73.4139C75.4194 83.1564 73.1881 96.5068 73.1881 96.5068H29.5322L40.8115 41.7382Z" fill="#EB7547"/>
<path d="M104.856 84.4886C104.856 84.4886 86.8516 52.9449 83.6114 48.897C80.0633 44.4658 77.2317 44.978 77.2317 44.978L75.3271 66.2261L90.6355 87.9456L94.2842 89.2624L104.856 84.4886Z" fill="#EB7547"/>
<path d="M41.5638 41.5615C41.5638 41.5615 31.331 42.3786 27.6603 59.1609C26.0009 66.7443 23.889 75.632 23.2981 81.6032C22.8581 85.9371 25.5326 90.4438 29.8539 90.9969L35.2783 92.0026C36.7113 92.2686 38.1919 91.975 39.4149 91.1822C40.638 90.3894 41.5106 89.1578 41.8529 87.741L43.6851 80.1544L38.8044 78.5139L39.9327 55.9144L41.5638 41.5615Z" fill="#EB7547"/>
<path d="M79.0344 56.7529C79.0583 56.8285 79.0741 56.9065 79.0815 56.9855C79.1098 57.1552 79.1412 57.3815 79.1852 57.6612C79.2072 57.8089 79.2292 57.9755 79.2575 58.1515C79.2858 58.3274 79.2952 58.5254 79.3141 58.736C79.3581 59.154 79.4084 59.6317 79.4304 60.1628C79.5062 61.4049 79.5146 62.6502 79.4555 63.8932C79.3821 65.4148 79.231 66.9315 79.003 68.4377C78.7673 70.0405 78.4718 71.5553 78.1733 72.9255C77.8747 74.2957 77.5761 75.5245 77.3216 76.5554C77.067 77.5862 76.8439 78.4127 76.693 78.9847C76.6176 79.2581 76.5579 79.4781 76.5108 79.6415C76.4918 79.7185 76.4676 79.7941 76.4385 79.8678C76.4449 79.7892 76.4586 79.7113 76.4793 79.6353C76.517 79.4655 76.5705 79.2456 76.6333 78.969L77.2116 76.5145C77.4536 75.4805 77.7427 74.2517 78.0287 72.8815C78.3147 71.5113 78.6101 69.9996 78.8458 68.3999C79.0815 66.8003 79.2418 65.2572 79.3078 63.8712C79.3738 62.4853 79.3801 61.2125 79.3078 60.1565C79.3078 59.6285 79.2512 59.1508 79.2167 58.7297C79.2009 58.5223 79.1852 58.3274 79.1727 58.1452C79.1601 57.9629 79.1318 57.8057 79.1161 57.6549C79.0847 57.3752 79.0627 57.1489 79.0438 56.9792C79.0356 56.9041 79.0325 56.8285 79.0344 56.7529Z" fill="#263238"/>
<path d="M44.1748 80.9656C44.1531 80.9211 44.1353 80.8748 44.1214 80.8273C44.09 80.7236 44.046 80.5916 43.9925 80.4219L43.7914 79.7713C43.7348 79.4754 43.61 79.1967 43.4268 78.9573C43.1577 78.6992 42.8361 78.502 42.484 78.3791C42.07 78.2226 41.643 78.1027 41.2081 78.0208C40.1711 77.8286 39.1198 77.7235 38.0653 77.7065H37.9805V77.6248L38.9044 71.6002C39.4984 67.8069 40.039 64.3719 40.4318 61.8577C40.6361 60.6257 40.7995 59.6232 40.9158 58.9129C40.9724 58.5766 41.0195 58.3095 41.0541 58.1115C41.0541 58.0298 41.0824 57.9607 41.0949 57.9041C41.0972 57.8801 41.1035 57.8567 41.1138 57.835C41.1186 57.8588 41.1186 57.8834 41.1138 57.9072C41.1138 57.9638 41.1138 58.033 41.0886 58.1178C41.0635 58.3158 41.0258 58.5829 40.9818 58.9223C40.8781 59.6358 40.7304 60.6414 40.5512 61.8765C40.1678 64.3907 39.6461 67.8195 39.0679 71.619C38.7284 73.7875 38.411 75.8397 38.125 77.6405L38.0528 77.5557C39.1201 77.5832 40.183 77.702 41.2301 77.9108C41.6711 77.9988 42.1034 78.1261 42.5217 78.2911C42.8883 78.4255 43.2201 78.6402 43.4928 78.9196C43.6052 79.0458 43.6888 79.1949 43.738 79.3565L43.8543 79.7745C43.9265 80.029 43.9863 80.249 44.0365 80.4313C44.0868 80.6136 44.1182 80.7456 44.1434 80.843C44.1577 80.8828 44.1682 80.9238 44.1748 80.9656Z" fill="#263238"/>
<path d="M30.0723 83.5287C30.0823 83.3855 30.1098 83.2441 30.154 83.1075C30.2528 82.7287 30.3853 82.3596 30.55 82.0044C31.0859 80.8174 31.9214 79.7903 32.9743 79.0239C34.0273 78.2574 35.2615 77.7781 36.5557 77.6329C36.9435 77.5855 37.3348 77.5729 37.7248 77.5952C37.8689 77.5968 38.0123 77.6148 38.1523 77.6486C37.6271 77.6515 37.1024 77.6841 36.5809 77.746C35.3161 77.9204 34.114 78.4048 33.0815 79.1559C32.0491 79.9071 31.2183 80.9018 30.6631 82.0516C30.4399 82.533 30.2427 83.0261 30.0723 83.5287Z" fill="#263238"/>
<path d="M32.4355 75.1762C32.5156 75.1559 32.5983 75.1485 32.6807 75.1542C32.9064 75.15 33.1321 75.1605 33.3564 75.1856C34.0984 75.2604 34.8257 75.4424 35.5154 75.7262C36.205 76.0116 36.8505 76.3936 37.4325 76.8607C37.609 77.0003 37.7759 77.1515 37.9322 77.3133C38.0422 77.4296 38.1019 77.4956 38.0925 77.505C38.0831 77.5144 37.8159 77.285 37.3634 76.9519C36.1766 76.0823 34.7959 75.5149 33.3407 75.2988C32.7844 75.2171 32.4355 75.2045 32.4355 75.1762Z" fill="#263238"/>
<path d="M43.0332 53.4698C43.0126 53.3209 43.0052 53.1705 43.0112 53.0204C43.0112 52.7312 42.9923 52.3164 42.9546 51.8041C42.8603 50.4676 42.6307 49.144 42.2695 47.8537C41.9031 46.5654 41.4094 45.3168 40.7955 44.1264C40.5567 43.6707 40.3556 43.3062 40.2078 43.061C40.125 42.9356 40.0535 42.8031 39.9941 42.665C40.0944 42.7768 40.1839 42.8978 40.2613 43.0265C40.4278 43.2653 40.6447 43.6204 40.8898 44.073C42.1978 46.4466 42.9399 49.0903 43.0583 51.7979C43.0803 52.3133 43.0772 52.7407 43.0583 53.0204C43.0648 53.1706 43.0564 53.3212 43.0332 53.4698Z" fill="#263238"/>
<g opacity="0.3">
<path d="M78.5668 70.8295C81.1753 66.4076 81.2319 60.6627 78.9534 56.0586C79.6862 60.9639 79.5286 65.9612 78.4883 70.8106" fill="black"/>
</g>
<g opacity="0.3">
<path d="M55.3446 75.8289C53.3647 76.4104 50.6305 76.5518 48.6914 75.8289C50.2031 77.9754 53.1164 78.7517 55.6432 78.054C58.1699 77.3563 60.5018 74.8264 60.6967 72.2085C59.4742 73.8616 57.3277 75.257 55.3446 75.8289Z" fill="black"/>
</g>
<path d="M62.6278 68.6901C62.6187 68.7503 62.6029 68.8093 62.5807 68.8661C62.543 68.9792 62.499 69.152 62.411 69.3595C62.1819 69.96 61.8967 70.5377 61.5593 71.0848C61.0618 71.9006 60.4607 72.6485 59.7711 73.3099C58.0791 74.9569 55.8949 76.0053 53.5516 76.2955C52.6043 76.4184 51.6452 76.4184 50.698 76.2955C50.0582 76.216 49.427 76.0782 48.8123 75.8838C48.5923 75.8178 48.432 75.7455 48.3189 75.7047C48.2615 75.6852 48.2058 75.661 48.1523 75.6324C48.3806 75.6838 48.6061 75.7467 48.828 75.8209C51.4889 76.5608 54.3266 76.3256 56.8295 75.1578C59.3072 73.9398 61.2647 71.872 62.345 69.3312C62.5273 68.9226 62.6121 68.6838 62.6278 68.6901Z" fill="#263238"/>
<path d="M40.5625 90.6914C40.5625 90.6914 40.5405 90.726 40.484 90.7763C40.4048 90.855 40.3197 90.9275 40.2294 90.9931C39.9006 91.2383 39.536 91.4313 39.1483 91.5651C38.5719 91.7567 37.9704 91.8626 37.3632 91.8794C36.629 91.9027 35.894 91.8764 35.1633 91.8008C33.5919 91.6657 32.1965 91.4362 31.1877 91.2571C30.6817 91.166 30.2732 91.0874 29.9935 91.0277C29.8445 91.0075 29.6981 90.9717 29.5566 90.9208C29.7064 90.9231 29.8556 90.9378 30.0029 90.9648L31.2066 91.1408C32.2185 91.2948 33.6202 91.5022 35.179 91.6374C35.9098 91.7129 36.6444 91.7433 37.3789 91.7285C37.9738 91.716 38.564 91.6208 39.1326 91.4457C39.6443 91.2674 40.1264 91.0131 40.5625 90.6914Z" fill="#263238"/>
<path d="M76.048 8.00368L77.3397 6.74658C79.0587 7.49456 79.8539 9.4902 80.1461 11.3444C80.4384 13.1986 80.3944 15.1471 81.1832 16.8505C81.7866 18.161 82.8835 19.3647 82.7546 20.8135C82.632 22.1806 81.3938 23.2868 81.3875 24.6602C81.3875 25.9833 82.4875 26.9984 83.1286 28.155C84.4265 30.4963 85.2688 40.0754 84.59 42.6682C78.8796 42.1747 68.7662 41.565 63.0527 40.2514C64.5581 30.4083 70.897 16.5174 76.048 8.00368Z" fill="#263238"/>
<path d="M78.612 16.7785C79.0079 10.0875 74.1493 3.96548 67.3766 3.1578C60.1892 2.30297 53.8314 7.45079 53.2343 14.4528L51.5498 42.7187C51.519 43.265 51.6717 43.8059 51.9835 44.2555C53.6428 46.6817 56.6473 48.5799 59.3344 48.9539C61.9334 49.3153 64.5702 48.6396 66.7827 47.4076C67.1497 47.2002 67.4558 46.9 67.6703 46.5371C67.8849 46.1742 68.0003 45.7613 68.0052 45.3397L68.1215 39.0134C68.121 39.0079 68.1217 39.0024 68.1236 38.9972C68.1255 38.992 68.1285 38.9873 68.1324 38.9834C68.1363 38.9795 68.141 38.9765 68.1461 38.9747C68.1513 38.9728 68.1568 38.972 68.1623 38.9725C68.7544 39.0172 69.3494 39.0003 69.938 38.9222C71.6099 38.5137 75.8746 36.8732 77.3077 30.6128C77.7854 28.5386 78.2631 22.646 78.612 16.7785Z" fill="#FFBE9D"/>
<path d="M69.3037 26.0216C69.3037 25.9588 70.0046 25.8896 71.1391 25.8268C71.4251 25.8268 71.6985 25.7796 71.7676 25.5911C71.8098 25.3028 71.7615 25.0085 71.6293 24.7488L70.9254 22.5489C69.9511 19.4313 69.266 16.8762 69.3917 16.8417C69.5174 16.8071 70.4131 19.2993 71.3874 22.4169C71.6199 23.1869 71.8431 23.9191 72.0568 24.6168C72.1448 24.9311 72.305 25.3145 72.1322 25.7262C72.0841 25.8222 72.0146 25.9058 71.929 25.9706C71.8435 26.0355 71.7442 26.0798 71.6388 26.1002C71.4785 26.1321 71.3148 26.1437 71.1516 26.1348C70.0077 26.1285 69.3069 26.0845 69.3037 26.0216Z" fill="#263238"/>
<path d="M76.7544 19.1454C76.6318 19.2805 75.8901 18.6583 74.8279 18.6268C73.7656 18.5954 72.9736 19.1517 72.8605 19.0071C72.8039 18.9411 72.9328 18.6928 73.2785 18.4351C73.7352 18.1069 74.2877 17.9389 74.8499 17.9574C75.4114 17.9768 75.9502 18.1837 76.3804 18.5451C76.7104 18.828 76.8329 19.0857 76.7544 19.1454Z" fill="#263238"/>
<path d="M65.9725 19.4157C65.8279 19.5508 65.0548 18.85 63.8952 18.7494C62.7355 18.6488 61.8335 19.18 61.7172 19.0228C61.6607 18.9505 61.8178 18.7086 62.2106 18.4509C62.737 18.1389 63.349 18.0025 63.958 18.0612C64.5676 18.1152 65.1433 18.3655 65.5985 18.7746C65.9411 19.0794 66.0417 19.356 65.9725 19.4157Z" fill="#263238"/>
<path d="M68.1135 38.9694C68.1135 38.9694 63.7828 39.0166 58.6035 35.459C58.6035 35.459 59.9423 41.1725 68.0789 40.9934L68.1135 38.9694Z" fill="#EB996E"/>
<path d="M68.6621 28.6305C68.4648 28.3522 68.2009 28.1279 67.8946 27.978C67.5882 27.8281 67.2491 27.7575 66.9084 27.7725C66.6624 27.7761 66.4195 27.8291 66.1944 27.9285C65.9693 28.0278 65.7664 28.1714 65.5979 28.3508C65.437 28.5225 65.3338 28.7403 65.3028 28.9736C65.2718 29.2069 65.3145 29.444 65.425 29.6518C65.6985 30.0887 66.3207 30.2301 66.8644 30.117C67.4028 29.9697 67.9069 29.7176 68.3478 29.3753C68.4787 29.2915 68.5936 29.1851 68.6872 29.061C68.7314 29.0031 68.7574 28.9333 68.7619 28.8606C68.7664 28.7878 68.7491 28.7154 68.7123 28.6525" fill="#EB996E"/>
<path d="M65.9789 26.5464C66.1612 26.5464 66.0889 27.7406 67.0695 28.6583C68.05 29.576 69.3479 29.532 69.3479 29.6986C69.3479 29.7771 69.0337 29.9123 68.4994 29.8871C67.7911 29.8478 67.1182 29.5646 66.5949 29.0857C66.0965 28.6299 65.7964 27.997 65.7589 27.3226C65.7432 26.8229 65.8972 26.5464 65.9789 26.5464Z" fill="#263238"/>
<path d="M66.1536 15.0347C66.0216 15.3238 64.9185 15.1007 63.6017 15.1541C62.2849 15.2076 61.2007 15.4684 61.0435 15.2013C60.9775 15.0661 61.1787 14.8022 61.6281 14.5444C62.2257 14.2332 62.8856 14.0602 63.5591 14.0385C64.2326 14.0167 64.9023 14.1467 65.5188 14.4187C65.9745 14.645 66.1976 14.8964 66.1536 15.0347Z" fill="#263238"/>
<path d="M76.9915 15.2706C76.7652 15.522 75.8695 15.2706 74.7915 15.2706C73.7136 15.2706 72.8085 15.4497 72.5916 15.1889C72.4973 15.0632 72.6388 14.8117 73.0347 14.5603C73.583 14.273 74.195 14.1292 74.8138 14.1424C75.4326 14.1556 76.038 14.3253 76.5735 14.6357C76.9632 14.8903 77.092 15.148 76.9915 15.2706Z" fill="#263238"/>
<path d="M68.3467 1.74401C67.7621 0.750906 66.6779 0.298348 65.4648 0.116069C60.5118 -0.635047 54.9869 2.34742 52.2118 6.5147C49.4368 10.682 49.2891 16.9015 51.3193 21.4773L54.4086 19.5477C60.6092 16.9895 64.9871 11.0151 68.9752 4.84276C69.5315 4.00365 68.8652 2.60827 68.3467 1.74401Z" fill="#263238"/>
<path d="M75.9796 4.46757C73.9085 2.11051 72.4031 -0.246549 68.1038 1.40025C67.4753 2.60392 68.7324 4.16586 69.8135 5.07726C71.3849 6.41607 72.7331 7.31803 73.7576 8.27657C75.8256 10.2094 78.1763 16.7117 78.3806 20.2599C78.3806 20.483 78.7735 17.2145 79.0092 17.18C79.2983 17.136 80.4643 15.7092 80.304 13.7607C79.7509 7.10119 78.0506 6.82148 75.9796 4.46757Z" fill="#263238"/>
<path d="M65.4874 0.11477C65.8103 0.0517662 66.1445 0.0800661 66.4522 0.196484C67.213 0.429819 67.8913 0.875803 68.407 1.48187C68.5543 1.65224 68.6848 1.83642 68.7967 2.03185C68.8943 2.22064 68.9703 2.41991 69.023 2.62582C69.1352 2.95782 69.2203 3.29835 69.2775 3.64407C69.3624 4.25062 69.2178 4.61832 69.1864 4.60889C69.155 4.59947 69.2021 4.23805 69.0701 3.68179C68.9829 3.35268 68.878 3.0285 68.7558 2.71068C68.7 2.52487 68.6263 2.3449 68.5359 2.17327C68.4296 1.99315 68.3076 1.82278 68.1713 1.66414C67.6847 1.10041 67.0691 0.662661 66.3768 0.388192C65.8425 0.196484 65.4811 0.165054 65.4874 0.11477Z" fill="#455A64"/>
<path d="M75.7796 21.2037C75.78 21.4447 75.688 21.6768 75.5226 21.8521C75.3572 22.0275 75.1309 22.1328 74.8902 22.1465C74.7707 22.1577 74.6502 22.1449 74.5356 22.1089C74.4211 22.0729 74.3149 22.0144 74.2233 21.9368C74.1317 21.8593 74.0565 21.7642 74.0021 21.6572C73.9477 21.5502 73.9152 21.4334 73.9065 21.3137C73.9004 21.0688 73.9898 20.8312 74.1558 20.6511C74.3218 20.471 74.5514 20.3626 74.7959 20.3488C74.9173 20.3372 75.0397 20.3504 75.1558 20.3876C75.2719 20.4247 75.3792 20.4851 75.4713 20.5651C75.5633 20.6451 75.6381 20.7429 75.6911 20.8527C75.7441 20.9625 75.7742 21.0819 75.7796 21.2037Z" fill="#263238"/>
<path d="M65.4213 21.2536C65.4274 21.4984 65.338 21.736 65.172 21.9161C65.006 22.0962 64.7764 22.2046 64.5319 22.2184C64.4126 22.23 64.2921 22.2176 64.1776 22.182C64.0631 22.1464 63.9569 22.0882 63.8652 22.0109C63.7735 21.9335 63.6983 21.8387 63.6438 21.7318C63.5894 21.625 63.5569 21.5083 63.5482 21.3887C63.5413 21.1433 63.6303 20.9049 63.7964 20.7241C63.9625 20.5434 64.1925 20.4345 64.4376 20.4207C64.5572 20.4091 64.6779 20.4216 64.7926 20.4574C64.9073 20.4932 65.0137 20.5517 65.1054 20.6293C65.1971 20.707 65.2723 20.8022 65.3266 20.9095C65.3808 21.0167 65.413 21.1337 65.4213 21.2536Z" fill="#263238"/>
<path d="M36.9446 29.1198C37.5291 28.1581 38.2017 27.253 39.2702 26.8538C40.3388 26.4547 41.5519 26.2253 42.391 25.4459C43.7078 24.2359 43.6481 22.2246 43.5286 20.4709C43.4092 18.7173 43.3778 16.6996 44.7229 15.5211C45.848 14.5374 47.6362 14.4494 48.6105 13.3212C49.261 12.5701 49.3899 11.5329 49.6161 10.5744C50.2447 8.00678 51.6495 3.52209 59.2172 0.941895L52.5232 26.3793C53.0229 26.5207 54.2171 27.6584 54.2831 28.4283C54.3428 29.148 54.0317 29.8772 54.0254 30.6C54.0254 31.4831 54.9871 32.0111 55.5968 32.6648C56.3699 33.4976 56.6088 34.6981 56.4893 35.8075C56.2415 37.3237 55.8359 38.8099 55.2794 40.2419C49.0693 39.6134 40.0056 39.4122 35.2727 35.4524C34.4147 34.7358 35.6435 31.26 36.9446 29.1198Z" fill="#263238"/>
<path d="M54.4304 19.5473C54.3141 19.4845 49.7414 17.6617 49.4491 22.4858C49.1568 27.3099 54.0501 26.5933 54.0658 26.4582C54.0815 26.3231 54.4304 19.5473 54.4304 19.5473Z" fill="#FFBE9D"/>
<path d="M52.6982 24.5479C52.6762 24.529 52.6102 24.6013 52.4625 24.6547C52.2581 24.7295 52.0326 24.7216 51.8339 24.6327C51.3373 24.4127 50.9571 23.5799 50.9854 22.7125C51.0013 22.2992 51.1087 21.8946 51.2996 21.5277C51.3544 21.3803 51.4438 21.2483 51.5603 21.1427C51.6768 21.0372 51.817 20.9612 51.969 20.9212C52.067 20.9016 52.1688 20.9169 52.2567 20.9646C52.3445 21.0122 52.4129 21.0892 52.4499 21.182C52.5064 21.3203 52.4687 21.4146 52.4939 21.424C52.519 21.4334 52.6039 21.3486 52.5756 21.1474C52.5575 21.0261 52.4975 20.9149 52.4059 20.8332C52.2799 20.7246 52.1161 20.6703 51.9502 20.6823C51.7503 20.7089 51.5606 20.7864 51.3993 20.9075C51.238 21.0286 51.1106 21.1891 51.0294 21.3737C50.7997 21.779 50.6724 22.2343 50.6585 22.6999C50.6302 23.671 51.0702 24.6076 51.7553 24.8496C51.8819 24.8956 52.0174 24.9122 52.1513 24.898C52.2853 24.8839 52.4143 24.8393 52.5284 24.7679C52.6824 24.661 52.7139 24.5573 52.6982 24.5479Z" fill="#EB996E"/>
<path d="M71.541 20.8079C71.5665 20.4453 71.618 20.0851 71.695 19.7299C71.8404 19.1356 72.1081 18.5781 72.4811 18.0931C72.8541 17.608 73.3242 17.2061 73.8612 16.9131C74.3983 16.62 74.9906 16.4421 75.6004 16.3909C76.2101 16.3396 76.8238 16.4161 77.4022 16.6154C77.8006 16.7498 78.1759 16.9449 78.5148 17.1937C78.8768 17.4439 79.1953 17.7518 79.4576 18.1051C80.0207 18.8425 80.3325 19.741 80.3473 20.6687C80.362 21.5964 80.0788 22.5043 79.5393 23.2592C79.2901 23.62 78.9845 23.9383 78.6342 24.202C78.304 24.4623 77.9349 24.6691 77.5405 24.8149C76.8113 25.0957 76.0202 25.1761 75.2495 25.0474C74.5773 24.9365 73.9409 24.6684 73.3921 24.2649C72.5886 23.6803 72.0052 22.8423 71.7359 21.8858C71.6491 21.5321 71.5861 21.1731 71.5473 20.811C71.546 20.8351 71.546 20.8592 71.5473 20.8833C71.5473 20.943 71.5473 21.0121 71.5473 21.097C71.55 21.2119 71.5616 21.3264 71.5819 21.4395C71.5991 21.5956 71.6285 21.7501 71.6699 21.9015C71.9221 22.8855 72.5046 23.7531 73.3198 24.3592C73.9235 24.8109 74.6317 25.1026 75.3785 25.207C76.1253 25.3114 76.8863 25.2251 77.5908 24.9563C78.4271 24.6402 79.1503 24.0822 79.6681 23.3535C80.2285 22.5715 80.5228 21.6301 80.5075 20.6681C80.4922 19.7062 80.1682 18.7746 79.5833 18.0108C79.311 17.6465 78.9821 17.3282 78.609 17.068C78.2607 16.8179 77.8759 16.6228 77.4682 16.4897C76.7557 16.2435 75.9925 16.1815 75.2496 16.3096C74.5067 16.4376 73.8082 16.7515 73.2192 17.222C72.4219 17.8544 71.867 18.7424 71.6479 19.7362C71.6119 19.8893 71.5867 20.0447 71.5724 20.2013C71.557 20.3159 71.5497 20.4314 71.5504 20.547C71.5504 20.6319 71.5504 20.701 71.5504 20.7576C71.5466 20.7742 71.5434 20.791 71.541 20.8079Z" fill="#455A64"/>
<path d="M59.3981 21.0028C59.4234 20.6404 59.4738 20.2802 59.549 19.9248C59.7854 18.9608 60.3388 18.1041 61.1204 17.4923C61.6566 17.0718 62.2843 16.7833 62.9526 16.6501C63.719 16.4986 64.512 16.5539 65.2499 16.8103C65.6478 16.946 66.0228 17.141 66.3625 17.3886C66.7238 17.6397 67.0421 17.9474 67.3053 18.3C67.8677 19.037 68.1794 19.9346 68.1946 20.8615C68.2099 21.7884 67.928 22.6959 67.3901 23.451C67.1396 23.8117 66.833 24.13 66.4819 24.3938C66.1518 24.6542 65.7827 24.861 65.3882 25.0066C64.659 25.2875 63.8679 25.3678 63.0972 25.2392C62.426 25.1284 61.7906 24.8602 61.2429 24.4566C60.4388 23.8721 59.8544 23.0342 59.5836 22.0776C59.4969 21.724 59.435 21.3649 59.3981 21.0028C59.3948 21.0267 59.3948 21.0511 59.3981 21.0751C59.3981 21.1316 59.3981 21.2039 59.3981 21.2888C59.398 21.4037 59.4085 21.5183 59.4296 21.6313C59.4465 21.7877 59.477 21.9422 59.5207 22.0933C59.7703 23.0785 60.3533 23.9469 61.1707 24.5509C61.7265 24.9684 62.3722 25.2504 63.0563 25.3743C63.8512 25.5113 64.6683 25.4332 65.4228 25.1481C66.2604 24.8344 66.9842 24.2759 67.5001 23.5452C68.0605 22.7632 68.3548 21.8219 68.3395 20.8599C68.3242 19.898 68.0002 18.9664 67.4153 18.2026C66.8747 17.4902 66.1339 16.9551 65.2876 16.6658C64.5242 16.4049 63.7048 16.3539 62.9149 16.5181C62.0736 16.691 61.3 17.1029 60.6868 17.7043C60.0737 18.3058 59.647 19.0713 59.4579 19.9091C59.4188 20.0616 59.3936 20.2172 59.3824 20.3742C59.3638 20.4885 59.3564 20.6042 59.3604 20.7199V20.9305C59.3676 20.957 59.3805 20.9817 59.3981 21.0028Z" fill="#455A64"/>
<path d="M68.0732 20.6724C68.0984 20.6881 68.2241 20.4839 68.5164 20.2482C68.891 19.9374 69.3603 19.7635 69.8469 19.7549C70.3336 19.7464 70.8086 19.9037 71.194 20.201C71.5083 20.4241 71.6277 20.6253 71.6497 20.6064C71.5715 20.4079 71.4386 20.2357 71.2663 20.1099C70.8727 19.7653 70.3647 19.5799 69.8417 19.5897C69.3187 19.5996 68.8181 19.8041 68.4378 20.1633C68.2709 20.2954 68.1446 20.4719 68.0732 20.6724Z" fill="#455A64"/>
<path d="M53.3242 19.2389C53.6135 19.3306 53.9116 19.3917 54.2136 19.4212C54.7699 19.5092 55.5399 19.5909 56.3884 19.6663L58.5663 19.8611C58.8648 19.9071 59.1663 19.9302 59.4683 19.9303C59.1791 19.8378 58.881 19.7756 58.5789 19.7449C58.0258 19.66 57.2558 19.5783 56.4041 19.5029L54.2293 19.308C53.93 19.2601 53.6273 19.237 53.3242 19.2389Z" fill="#455A64"/>
<path d="M78.5498 23.5261C78.942 23.0729 79.2602 22.5606 79.4926 22.0081C79.6752 21.4361 79.7674 20.8392 79.766 20.2388C79.836 20.4079 79.8682 20.5902 79.8603 20.773C79.8716 21.2132 79.799 21.6516 79.6466 22.0647C79.4946 22.4779 79.2641 22.8578 78.9678 23.1835C78.7384 23.4287 78.5624 23.5418 78.5498 23.5261Z" fill="white"/>
<path d="M79.319 18.5605C79.3441 18.5228 79.5234 18.614 79.6334 18.8278C79.7434 19.0416 79.6963 19.2365 79.6523 19.2334C79.6082 19.2303 79.5705 19.0699 79.4856 18.897C79.4007 18.724 79.2907 18.5951 79.319 18.5605Z" fill="white"/>
<path d="M67.4649 22.5741C67.4398 22.5741 67.5278 22.3227 67.6001 21.9173C67.7854 20.8539 67.5812 19.7593 67.025 18.8342C66.8144 18.4823 66.6447 18.2874 66.6635 18.2686C66.8487 18.4037 67.0048 18.5747 67.1224 18.7714C67.438 19.2283 67.6549 19.746 67.7593 20.2914C67.8638 20.8369 67.8534 21.3981 67.7289 21.9393C67.6847 22.1665 67.5949 22.3825 67.4649 22.5741Z" fill="white"/>
<path d="M50.7542 26.3922C50.7542 26.3922 50.6882 26.4864 50.5939 26.6593C50.4587 26.9048 50.3873 27.1804 50.3865 27.4607C50.3814 27.6639 50.4185 27.866 50.4953 28.0542C50.5721 28.2424 50.687 28.4127 50.8327 28.5544C51.0086 28.7291 51.2232 28.8598 51.4592 28.9357C51.6951 29.0116 51.9457 29.0306 52.1904 28.9912C52.4335 28.9412 52.6617 28.8354 52.8569 28.6821C53.0522 28.5289 53.2092 28.3324 53.3155 28.1081C53.4014 27.9239 53.4488 27.724 53.4548 27.5208C53.4607 27.3176 53.4251 27.1154 53.3501 26.9264C53.2509 26.6649 53.0891 26.4318 52.8787 26.2476C52.7278 26.1187 52.6273 26.0653 52.6335 26.0527C52.7374 26.0794 52.834 26.1287 52.9164 26.1973C53.1561 26.3716 53.3432 26.6087 53.4569 26.8824C53.548 27.085 53.5951 27.3046 53.5951 27.5267C53.5951 27.7488 53.548 27.9684 53.4569 28.1709C53.3488 28.4235 53.1796 28.6453 52.9646 28.8163C52.7496 28.9874 52.4955 29.1024 52.2251 29.151C51.9546 29.1996 51.6764 29.1803 51.4153 29.0948C51.1542 29.0093 50.9184 28.8603 50.729 28.6612C50.5724 28.5041 50.4508 28.3156 50.3723 28.1082C50.2938 27.9007 50.26 27.679 50.2733 27.4575C50.2842 27.1616 50.3766 26.8745 50.5405 26.6279C50.6505 26.455 50.7542 26.3859 50.7542 26.3922Z" fill="#E0E0E0"/>
<path d="M77.3061 30.1007C77.5721 30.2071 77.8653 30.2247 78.1421 30.151C78.4381 30.0681 78.7049 29.9036 78.912 29.6764C79.1672 29.4009 79.3394 29.0588 79.4086 28.6896C79.4806 28.3202 79.4344 27.9376 79.2766 27.5959C79.1471 27.3158 78.9546 27.0695 78.714 26.8763C78.4818 26.7065 78.2282 26.568 77.9598 26.4646C78.0397 26.4574 78.1202 26.4681 78.1955 26.496C78.408 26.555 78.6082 26.6518 78.7863 26.782C79.0532 26.9781 79.2688 27.2358 79.4149 27.5331C79.5943 27.9005 79.6495 28.3164 79.572 28.7179C79.4951 29.1192 79.3029 29.4895 79.0189 29.7833C78.7883 30.0237 78.4921 30.1909 78.1672 30.2641C77.9494 30.3155 77.7215 30.3035 77.5104 30.2296C77.3627 30.1698 77.2998 30.107 77.3061 30.1007Z" fill="#E0E0E0"/>
<path d="M59.8623 92.5011L64.523 93.8808C64.523 93.8808 67.0938 94.9839 68.3446 95.2699C69.8971 95.625 70.9562 95.1441 71.0128 94.2799C71.0693 93.4156 69.8625 93.3056 69.8625 93.3056C68.8368 92.9149 67.8392 92.4539 66.8769 91.926C66.1781 91.4406 65.6067 90.7937 65.2113 90.0403L66.8769 90.2697C66.8769 90.2697 70.3811 92.7839 71.701 93.5445C73.021 94.305 73.3101 92.9694 73.4232 92.5671C73.5364 92.1648 69.52 88.0887 69.52 88.0887C69.52 88.0887 73.3667 90.5589 74.0549 91.1749C74.7432 91.7908 75.7803 91.992 76.0097 91.5928C76.2392 91.1937 76.8708 91.1906 76.0097 89.4872C75.1486 87.7838 68.2566 83.2017 68.2566 83.2017L70.1422 82.7994L72.2102 83.7203C72.3541 84.4298 72.6477 85.1005 73.0713 85.6876C73.8161 86.7939 75.1392 85.6876 75.1392 85.6876L74.3189 81.4449L70.2334 78.8867C70.2334 78.8867 65.9844 79.4053 65.3527 79.6913C64.721 79.9773 64.0296 81.1809 64.0296 81.1809L62.8825 81.646C61.1005 82.1615 61.1603 83.9434 60.5851 84C60.01 84.0565 43.2466 80.7881 43.2466 80.7881L41.7287 80.3921C39.2145 82.2997 38.2119 85.4519 37.7688 88.249C37.7688 88.249 37.3068 89.6192 37.7688 90.3735L59.8623 92.5011Z" fill="#FFBE9D"/>
<path d="M56.7917 89.5192C56.7719 89.4295 56.7666 89.3372 56.776 89.2458C56.7749 89.1404 56.7844 89.0351 56.8043 88.9315C56.8189 88.789 56.8463 88.6481 56.886 88.5104C57.122 87.7169 57.5213 86.9815 58.0583 86.3513C58.5797 85.7179 59.1606 85.1359 59.7931 84.6134C60.0437 84.3848 60.3163 84.1816 60.607 84.0068C60.3745 84.2476 60.1279 84.4742 59.8685 84.6857C59.264 85.2274 58.7009 85.8135 58.184 86.4393C57.6621 87.0559 57.2602 87.7648 56.9992 88.5292C56.8137 89.1295 56.8263 89.5224 56.7917 89.5192Z" fill="#EB996E"/>
<path d="M64.046 81.1816C64.046 81.1816 63.9077 81.2539 63.694 81.4268C63.3962 81.6783 63.1386 81.974 62.9304 82.3036C62.78 82.5264 62.6516 82.7632 62.5469 83.0107C62.4503 83.3019 62.3891 83.6037 62.3647 83.9095C62.3214 84.2653 62.1943 84.6056 61.9938 84.9026C61.7664 85.1902 61.5792 85.5074 61.4375 85.8455C61.2224 86.4167 61.2224 87.0467 61.4375 87.618L61.4596 87.6777L61.4061 87.7123C60.6775 88.1829 60.1499 88.9076 59.9259 89.7456C59.8487 90.0759 59.8014 90.4125 59.7845 90.7513C59.759 90.6636 59.7483 90.5722 59.753 90.481C59.7496 90.2262 59.7771 89.9719 59.8348 89.7236C60.0352 88.8433 60.5692 88.075 61.3244 87.5803L61.293 87.6746C61.0655 87.0666 61.0655 86.3969 61.293 85.7889C61.438 85.441 61.6328 85.116 61.8712 84.8241C62.0624 84.5425 62.1831 84.2192 62.2232 83.8813C62.2611 83.2823 62.4803 82.709 62.8518 82.2376C63.0736 81.9036 63.3523 81.6111 63.6752 81.3733C63.7621 81.3079 63.8572 81.254 63.958 81.2131C63.9859 81.1989 64.0155 81.1883 64.046 81.1816Z" fill="#EB996E"/>
<path d="M68.0798 83.0612C67.6777 83.1133 67.2689 83.0699 66.8867 82.9345C66.5045 82.7991 66.1595 82.5755 65.8799 82.2818C65.9113 82.2441 66.3324 82.5678 66.939 82.7784C67.5455 82.9889 68.0798 83.0141 68.0798 83.0612Z" fill="#EB996E"/>
<path d="M69.1604 87.703C68.5535 87.5327 67.9634 87.3076 67.3973 87.0304C66.8092 86.8046 66.2415 86.5292 65.7002 86.207C66.3055 86.3819 66.8953 86.6069 67.4633 86.8796C68.0513 87.1054 68.6191 87.3808 69.1604 87.703Z" fill="#EB996E"/>
<path d="M65.3847 89.9976C64.7746 89.7908 64.1783 89.5452 63.5996 89.2622C63.9276 89.2767 64.2489 89.3603 64.5424 89.5073C64.8556 89.6073 65.1431 89.7746 65.3847 89.9976Z" fill="#EB996E"/>
<path d="M68.5759 88.001C68.3053 88.1461 68.0673 88.345 67.8765 88.5855C67.6858 88.826 67.5462 89.103 67.4665 89.3995C67.4445 89.3995 67.4256 89.2895 67.4665 89.1135C67.5109 88.883 67.6101 88.6665 67.7555 88.4822C67.901 88.2979 68.0885 88.1512 68.3024 88.0544C68.4564 87.9884 68.5696 87.9821 68.5759 88.001Z" fill="#EB996E"/>
<path d="M70.2612 85.4514C70.2801 85.4955 69.972 85.6527 69.7645 86.0048C69.6588 86.2283 69.5705 86.4595 69.5003 86.6965C69.4557 86.5667 69.4439 86.4279 69.4658 86.2924C69.4877 86.157 69.5428 86.029 69.6261 85.9199C69.8651 85.5175 70.2549 85.4074 70.2612 85.4514Z" fill="#EB996E"/>
<path d="M69.7961 80.8353C69.7804 80.8353 69.7175 80.763 69.6704 80.6122C69.6138 80.4065 69.6138 80.1893 69.6704 79.9836C69.7252 79.7805 69.8337 79.5959 69.9846 79.4494C70.0978 79.3394 70.1921 79.3017 70.2015 79.3174C70.0516 79.5368 69.9302 79.7745 69.8401 80.0245C69.7933 80.2921 69.7786 80.5643 69.7961 80.8353Z" fill="#EB996E"/>
<path d="M103.772 82.2818C103.772 82.2818 103.562 78.1585 99.2876 77.3037C95.0134 76.4489 87.5274 80.0819 87.5274 80.0819L66.5527 94.6988L67.1813 96.5059L88.4702 93.5391L90.4187 94.2871L105.372 84.4629L119.483 74.2615L117.911 73.0327C117.911 73.0327 113.958 75.7575 111.343 76.9297C108.728 78.102 104.948 80.1573 103.772 82.2818Z" fill="#F5F5F5"/>
<path d="M66.2256 97.1026L83.9758 86.0747L102.741 83.0608C102.741 83.0608 103.684 84.4247 105.277 84.0916L120.708 73.4062L121 74.0505L91.0753 95.0755C90.6358 95.236 90.1609 95.2735 89.7017 95.1837C89.2425 95.094 88.8166 94.8805 88.4699 94.5664L66.2256 97.1026Z" fill="#455A64"/>
<path d="M102.739 83.0601C102.696 83.1062 102.648 83.1464 102.594 83.1795L102.161 83.4938C101.784 83.764 101.24 84.1569 100.589 84.6534C99.2568 85.6434 97.4466 87.0545 95.4918 88.6541C93.537 90.2538 91.7802 91.7403 90.5231 92.8246L89.024 94.1131L88.6155 94.4588C88.5713 94.5027 88.5216 94.5407 88.4678 94.5719C88.4678 94.5719 88.5055 94.5217 88.5935 94.4368L88.98 94.066C89.3195 93.7517 89.8129 93.2928 90.4351 92.7429C91.6734 91.6366 93.4113 90.1407 95.3755 88.5347C97.3397 86.9288 99.1468 85.5334 100.508 84.5654C101.18 84.0783 101.736 83.7012 102.126 83.4466L102.576 83.1575C102.627 83.1201 102.682 83.0875 102.739 83.0601Z" fill="#263238"/>
<path d="M102.551 80.766C100.85 78.9401 98.1728 78.2895 95.6838 78.4844C93.1947 78.6792 90.8345 79.6063 88.5121 80.5271L66.7988 95.3892L66.9937 95.9486L88.8232 81.1777C88.8232 81.1777 93.7007 79.6063 95.8598 79.3361C99.4677 78.8866 102.551 80.766 102.551 80.766Z" fill="#E0E0E0"/>
<path d="M105.951 82.7206L116.391 75.6777C116.391 75.6777 107.837 80.1279 105.951 82.7206Z" fill="#E0E0E0"/>
<path d="M66.7988 95.3891C66.8255 95.3619 66.855 95.3377 66.8868 95.3168L67.1571 95.1251L68.1974 94.3929L72.0441 91.7278L84.7722 82.9878L88.4681 80.4736C90.571 79.5248 92.7902 78.858 95.0678 78.4906C96.9077 78.2307 98.7835 78.4954 100.48 79.2542C101.114 79.5492 101.698 79.9416 102.211 80.4171C102.595 80.7747 102.921 81.1891 103.179 81.6459C103.341 81.9322 103.468 82.2372 103.556 82.5541C103.578 82.6578 103.597 82.7396 103.613 82.8024C103.62 82.8304 103.625 82.8587 103.629 82.8873C103.516 82.4633 103.349 82.0556 103.132 81.6742C102.868 81.2293 102.54 80.8258 102.158 80.4768C101.643 80.016 101.063 79.6346 100.436 79.3454C98.7558 78.6152 96.9058 78.3671 95.093 78.6288C92.8336 78.9991 90.632 79.6615 88.5435 80.5993H88.5592L84.8633 83.1135L72.1258 91.8221L68.2476 94.4463L67.1917 95.1502L66.912 95.3325C66.8763 95.3553 66.8384 95.3742 66.7988 95.3891Z" fill="#263238"/>
<path d="M85.8096 84.155C85.8591 84.1139 85.9141 84.0801 85.973 84.0544C86.083 83.9947 86.2464 83.9035 86.457 83.7967C86.8812 83.5767 87.5004 83.2687 88.2798 82.9167C90.3007 81.9694 92.4453 81.3124 94.6501 80.9651C96.8665 80.6305 99.1309 80.8376 101.25 81.5685C101.887 81.7982 102.498 82.092 103.076 82.4453C103.283 82.5647 103.431 82.681 103.535 82.7596C103.59 82.7934 103.641 82.8323 103.689 82.8759C103.689 82.8759 103.459 82.7439 103.044 82.5082C102.46 82.1799 101.846 81.9053 101.212 81.6879C99.1029 80.9961 96.8609 80.8077 94.6658 81.1379C92.4769 81.4841 90.3433 82.1181 88.3206 83.0236C87.5381 83.363 86.9127 83.6521 86.479 83.8564L85.9824 84.0858C85.9272 84.1145 85.8693 84.1377 85.8096 84.155Z" fill="#263238"/>
<path d="M118.916 73.8179C118.916 73.8179 118.872 73.8587 118.781 73.9216L118.375 74.1918L116.87 75.1598C115.594 75.9769 113.837 77.1052 111.911 78.3748C109.984 79.6445 108.262 80.8105 107.005 81.659L105.518 82.6584L105.11 82.9255C105.064 82.9589 105.014 82.9864 104.962 83.0073C105.001 82.9662 105.044 82.9293 105.091 82.8973L105.484 82.605C105.823 82.3536 106.32 81.9984 106.939 81.5616C108.177 80.691 109.899 79.5062 111.829 78.2366C113.758 76.9669 115.528 75.8544 116.816 75.0624C117.461 74.6664 117.985 74.3521 118.35 74.1384L118.774 73.8933C118.819 73.8638 118.866 73.8386 118.916 73.8179Z" fill="#263238"/>
<path d="M109.424 85.1192C109.21 85.6323 108.939 86.1194 108.616 86.5712C108.214 87.0489 106.9 87.7151 106.796 88.6234C106.693 89.5316 106.906 91.6624 105.486 93.2841C104.57 94.2928 103.411 95.0502 102.12 95.484L96.5163 94.9371L87.5658 91.4141C87.3658 91.3636 87.1936 91.2363 87.0866 91.0599C86.9796 90.8835 86.9463 90.6721 86.9938 90.4713C87.0493 90.253 87.1686 90.0563 87.3366 89.9062C87.5046 89.7562 87.7135 89.6597 87.9366 89.6291L88.1503 89.5945C88.1503 89.5945 87.6349 89.1734 88.3735 88.4348C89.002 87.8063 90.344 88.1614 91.0354 88.3908C91.7268 88.6202 95.7809 90.3142 96.5069 90.575C97.1512 90.8044 97.6477 91.0087 97.6477 91.0087C97.6477 91.0087 92.459 87.5077 92.3868 87.0489C92.3019 86.4989 92.3585 86.2475 92.8896 85.864C93.5182 85.4083 94.549 85.8955 95.5484 86.3166C96.2932 86.6309 101.042 88.9754 101.042 88.9754C101.042 88.9754 101.256 88.7679 101.042 88.3468C100.828 87.9257 99.2505 85.8955 99.0022 85.5183C98.754 85.1412 98.688 84.9275 98.9362 84.6101C99.2819 84.1607 100.193 83.947 101.032 84.7138C101.564 85.2041 103.452 86.4737 103.452 86.4737L112.17 80.1128C112.17 80.1128 113.255 80.0845 112.877 81.5962C112.5 83.1079 109.424 85.1192 109.424 85.1192Z" fill="#FFBE9D"/>
<path d="M102.921 90.4207C102.572 90.3432 102.247 90.1828 101.974 89.953C101.7 89.7233 101.486 89.4309 101.35 89.1008C101.39 89.0756 101.645 89.4653 102.079 89.8267C102.512 90.1882 102.943 90.3736 102.921 90.4207Z" fill="#EB996E"/>
<path d="M103.639 86.6275C103.639 86.6086 103.755 86.574 103.953 86.5992C104.2 86.635 104.432 86.7382 104.625 86.8972C104.817 87.0563 104.962 87.2652 105.043 87.5011C105.103 87.6834 105.094 87.8154 105.072 87.8154C104.94 87.522 104.752 87.2572 104.519 87.036C104.255 86.844 103.956 86.7052 103.639 86.6275Z" fill="#EB996E"/>
<path d="M104.048 88.3775C104.001 88.3775 103.979 87.9092 103.793 87.375C103.608 86.8407 103.347 86.4478 103.385 86.4321C103.661 86.6675 103.857 86.9826 103.947 87.3341C104.088 87.6632 104.123 88.0277 104.048 88.3775Z" fill="#EB996E"/>
<path d="M109.205 84.6659C109.205 84.6816 109.095 84.6188 108.982 84.4679C108.838 84.2676 108.748 84.0339 108.721 83.7891C108.693 83.5443 108.729 83.2965 108.824 83.0694C108.9 82.8997 108.985 82.8148 109 82.8274C108.888 83.1285 108.849 83.4516 108.884 83.7709C108.92 84.0902 109.029 84.3967 109.205 84.6659Z" fill="#EB996E"/>
<path d="M101.326 92.6132C101.125 92.6594 100.915 92.6594 100.713 92.6132C100.225 92.5268 99.7565 92.3521 99.3306 92.0978C98.9067 91.8487 98.5079 91.5593 98.1395 91.2336C97.9756 91.1133 97.8305 90.9692 97.709 90.8062C97.8899 90.897 98.0588 91.0099 98.2118 91.1424C98.5949 91.4381 98.9958 91.71 99.4123 91.9564C99.8247 92.2007 100.27 92.3839 100.735 92.5001C101.094 92.5755 101.326 92.5881 101.326 92.6132Z" fill="#EB996E"/>
<path d="M102.788 91.715C102.832 91.715 102.835 92.0294 102.571 92.2903C102.307 92.5513 101.986 92.5387 101.992 92.4947C101.999 92.4507 102.241 92.3878 102.454 92.1803C102.668 91.9728 102.741 91.7087 102.788 91.715Z" fill="#EB996E"/>
<path d="M104.928 90.1433C104.947 90.1433 104.947 90.2282 104.887 90.3414C104.805 90.4809 104.68 90.5908 104.532 90.6558C104.385 90.7274 104.219 90.7516 104.057 90.725C103.931 90.6999 103.868 90.6496 103.878 90.6307C103.887 90.6118 104.167 90.6558 104.463 90.5081C104.758 90.3603 104.884 90.1276 104.928 90.1433Z" fill="#EB996E"/>
<path d="M97.3788 93.7108C97.3631 93.7516 95.2795 92.8842 92.7276 91.7686C90.1756 90.6529 88.1203 89.7132 88.1517 89.6755C88.1832 89.6378 90.2542 90.5052 92.8061 91.6209C95.358 92.7365 97.3977 93.6699 97.3788 93.7108Z" fill="#EB996E"/>
<path d="M0.0308013 63.4954L6.85056 96.9751H66.0442C66.3576 96.9751 66.6581 96.8506 66.8797 96.629C67.1013 96.4074 67.2258 96.1068 67.2258 95.7934C67.2262 95.638 67.196 95.484 67.1368 95.3403C67.0776 95.1965 66.9906 95.0659 66.8808 94.9558C66.7711 94.8458 66.6407 94.7585 66.4971 94.6989C66.3535 94.6393 66.1996 94.6086 66.0442 94.6086H54.1269L47.8037 63.4609C47.7451 63.1702 47.5881 62.9086 47.359 62.7203C47.13 62.5319 46.8431 62.4283 46.5466 62.4269L1.31304 61.9429C1.12002 61.941 0.929005 61.9821 0.753961 62.0635C0.578917 62.1448 0.424276 62.2643 0.301357 62.4131C0.178437 62.562 0.0903492 62.7364 0.0435368 62.9237C-0.00327554 63.1109 -0.00762685 63.3063 0.0308013 63.4954Z" fill="#E0E0E0"/>
<path d="M0.0284508 63.4904L0.00959386 63.3898C-0.00319795 63.2855 -0.00319795 63.1799 0.00959386 63.0756C0.0319185 62.8752 0.10027 62.6827 0.209308 62.5132C0.318345 62.3436 0.465113 62.2016 0.638143 62.0982C0.758307 62.0243 0.890048 61.9712 1.02784 61.941C1.18148 61.9155 1.33737 61.906 1.49297 61.9127H2.55836L5.22341 61.9347L22.3294 62.095L34.2529 62.2176L40.9344 62.2836L44.4354 62.3213L46.2268 62.3402C46.3808 62.3402 46.5222 62.3402 46.6856 62.3402C46.8453 62.3582 47.0006 62.4039 47.1445 62.4753C47.4346 62.6168 47.6643 62.8577 47.7919 63.1541C47.8508 63.3008 47.893 63.4537 47.9176 63.6098L48.0087 64.0592C48.0685 64.3735 48.1313 64.6626 48.1942 64.9643C48.3157 65.5699 48.4393 66.1795 48.565 66.7934C48.8143 68.0191 49.0668 69.2605 49.3224 70.5176C49.8336 73.0318 50.3574 75.6015 50.8938 78.2267C51.9592 83.4751 53.0717 88.9341 54.2125 94.569L54.134 94.5062H65.8533C66.0078 94.5004 66.1625 94.5098 66.3152 94.5344C66.6298 94.602 66.9065 94.7876 67.0884 95.053C67.2724 95.3176 67.3477 95.6427 67.2989 95.9612C67.2703 96.1542 67.1972 96.3378 67.0854 96.4977C66.9736 96.6575 66.8261 96.7891 66.6547 96.8821C66.482 96.9741 66.2907 97.0257 66.0952 97.0329H34.6395H6.84821H6.79792V96.9826C4.71114 86.6901 3.02663 78.321 1.84182 72.5195C1.25726 69.6219 0.804708 67.3654 0.496719 65.8318C0.345867 65.0649 0.230634 64.4835 0.151018 64.0875C0.072449 63.6915 0.0378786 63.4904 0.0378786 63.4904C0.0378786 63.4904 0.0850198 63.6915 0.166731 64.0812C0.248443 64.4709 0.374152 65.0618 0.53129 65.8223C0.845564 67.356 1.31383 69.6093 1.91095 72.5069C3.09891 78.3053 4.81171 86.6713 6.92049 96.9575L6.85764 96.9072L34.6489 96.8915H66.0827C66.2515 96.8848 66.4168 96.8408 66.5667 96.7627C66.7153 96.6808 66.8433 96.5661 66.9408 96.4272C67.0383 96.2883 67.1028 96.1289 67.1292 95.9612C67.1697 95.6828 67.1047 95.3992 66.9469 95.1661C66.7861 94.9368 66.5449 94.7764 66.2712 94.7167C66.1298 94.6954 65.9868 94.6869 65.8438 94.6916H54.0585V94.6287C52.9177 89.0001 51.8083 83.5411 50.7461 78.2865C50.2118 75.6591 49.688 73.0883 49.1747 70.5742L48.4204 66.85C48.2979 66.2372 48.1722 65.6275 48.0496 65.0241C47.9899 64.7098 47.927 64.4175 47.8673 64.119L47.7762 63.6664C47.7527 63.5206 47.7148 63.3774 47.663 63.239C47.5766 63.0406 47.4392 62.8686 47.2648 62.7406C47.0903 62.6125 46.8851 62.5329 46.6699 62.5099C46.5317 62.5099 46.3745 62.5099 46.2268 62.5099L44.4354 62.4879L40.9313 62.4502L34.2529 62.3716L22.3262 62.2302L5.22027 62.0196L2.55836 61.985L1.49297 61.9693C1.33957 61.9599 1.18559 61.9684 1.03413 61.9945C0.899087 62.0223 0.769553 62.0722 0.650714 62.1422C0.481176 62.2412 0.336449 62.3776 0.227534 62.541C0.118619 62.7044 0.0483831 62.8904 0.0221651 63.085C0.00968289 63.22 0.0117904 63.3559 0.0284508 63.4904Z" fill="#263238"/>
<path d="M25.3483 80.766C26.4279 80.766 27.3031 79.8908 27.3031 78.8112C27.3031 77.7316 26.4279 76.8564 25.3483 76.8564C24.2687 76.8564 23.3936 77.7316 23.3936 78.8112C23.3936 79.8908 24.2687 80.766 25.3483 80.766Z" fill="white"/>
<path d="M0.078125 63.7705C0.078125 63.7705 0.147265 63.7705 0.282403 63.7705H3.18001L11.6434 63.8114L39.5667 64.0062L43.6051 64.0408H44.5983C44.7675 64.0344 44.937 64.0449 45.1042 64.0722C45.36 64.1242 45.5963 64.246 45.7871 64.4241C45.9779 64.6021 46.1158 64.8295 46.1853 65.081C46.2608 65.3953 46.3142 65.7096 46.3802 66.0239L47.8227 73.2962C48.7373 77.9317 49.5638 82.0958 50.2552 85.6126C50.9466 89.1293 51.5123 91.9515 51.8831 93.9157C52.0717 94.8931 52.2163 95.6536 52.3168 96.1753C52.364 96.4299 52.4017 96.6279 52.4268 96.7662C52.452 96.9045 52.4583 96.9673 52.4583 96.9673C52.4583 96.9673 52.4394 96.9013 52.4111 96.7693C52.3828 96.6373 52.3388 96.4362 52.2854 96.1816L51.8203 93.9409C51.4243 91.9766 50.8523 89.145 50.1421 85.6471C49.4318 82.1493 48.6021 77.9694 47.675 73.337C47.213 71.0208 46.7322 68.5883 46.223 66.0679C46.1571 65.7536 46.1005 65.4393 46.0313 65.125C45.9484 64.8265 45.7582 64.5691 45.4971 64.4022C45.3676 64.3193 45.2237 64.2617 45.0728 64.2325C44.915 64.2068 44.7549 64.1973 44.5951 64.2042H43.6051L39.5667 64.1728L11.6434 63.9276L3.18001 63.8334L0.879525 63.7705H0.279261H0.078125Z" fill="#263238"/>
</svg>
