<svg width="121" height="98" viewBox="0 0 121 98" fill="none" xmlns="http://www.w3.org/2000/svg">
<path d="M69.2325 1.47363H0.0722656V66.4745H69.2325V1.47363Z" fill="#455A64"/>
<path d="M69.2364 66.4702C69.2364 66.4702 69.2364 66.0524 69.2364 65.2755C69.2364 64.4985 69.2364 63.3206 69.2364 61.8043C69.2364 58.7633 69.2364 54.3063 69.2174 48.6253C69.2174 37.276 69.1907 21.056 69.1755 1.47351L69.2554 1.56541H0.102816L0.201833 1.4568C0.201833 25.0411 0.201833 47.2677 0.201833 66.4535L0.114241 66.3574L50.1308 66.4075L64.2477 66.4326H67.9835H69.2364H68.9203H67.9683H64.2515L50.1613 66.4576L0.0875922 66.5036H0V66.4075C0 47.2218 0 24.9951 0 1.41085V1.30225H0.102816H69.2554H69.3392V1.39414C69.3392 20.9809 69.3087 37.2384 69.2973 48.5961C69.2973 54.2687 69.2973 58.7173 69.2745 61.7541C69.2745 63.2663 69.2745 64.4233 69.2745 65.2087C69.2745 65.994 69.2364 66.4702 69.2364 66.4702Z" fill="#263238"/>
<path d="M15.8949 60.5389V60.4846C15.8949 60.447 15.8949 60.3927 15.8949 60.3259C15.8949 60.1839 15.8949 59.9833 15.8949 59.7202C15.8949 59.1855 15.8949 58.4127 15.8949 57.4269C15.8949 55.4553 15.8949 52.6482 15.8721 49.2773L15.914 49.3274H5.63954L5.68905 49.2731C5.68905 53.4001 5.68905 57.2598 5.68905 60.5514L5.64715 60.5055L13.0731 60.5306H15.1638H15.7198L15.16 60.5389H13.0769L5.63954 60.5807H5.59766V60.5389C5.59766 57.264 5.59766 53.4043 5.59766 49.2606V49.2104H15.9216V49.2606C15.9216 52.6441 15.9216 55.4595 15.9026 57.4395C15.9026 58.4211 15.9026 59.1897 15.9026 59.7202C15.9026 59.9792 15.9026 60.1797 15.9026 60.3217C15.9026 60.3844 15.9026 60.4345 15.9026 60.4721C15.903 60.4946 15.9005 60.5172 15.8949 60.5389Z" fill="white"/>
<path d="M15.8951 60.5386L15.975 60.4801L16.2111 60.313L17.1175 59.6864L20.4611 57.4015L20.442 57.4349C20.442 54.5109 20.442 50.6053 20.442 46.3446L20.4915 46.3989H20.4649H10.3465L6.91919 48.5292L5.97477 49.1057L5.72724 49.2519L5.63965 49.2602L5.71962 49.2059L5.95953 49.0472L6.89254 48.454L10.3199 46.2944H20.4382H20.5144V46.3362C20.5144 50.5969 20.5144 54.49 20.5144 57.4266V57.4475H20.4953L17.1403 59.7031C16.7595 59.9621 16.4358 60.171 16.2226 60.313L15.9788 60.4675L15.8951 60.5386Z" fill="white"/>
<path d="M20.4916 46.3364C20.4916 46.3615 19.4901 47.0382 18.2067 47.8486C16.9234 48.6589 15.9218 49.298 15.8875 49.2688C15.8533 49.2396 16.8891 48.567 18.1724 47.7567C19.4558 46.9463 20.4688 46.3364 20.4916 46.3364Z" fill="white"/>
<path d="M6.11923 60.0709C6.11923 60.096 6.03164 60.1879 5.89835 60.2714C5.76507 60.355 5.64321 60.4051 5.63179 60.38C5.62036 60.355 5.71556 60.2631 5.84885 60.1795C5.98213 60.096 6.104 60.0459 6.11923 60.0709Z" fill="white"/>
<path d="M7.09101 59.4567C7.09101 59.4859 7.00723 59.5736 6.87394 59.6572C6.74065 59.7407 6.6188 59.7908 6.60737 59.7658C6.59595 59.7407 6.69115 59.6488 6.82443 59.5653C6.95772 59.4817 7.07958 59.4316 7.09101 59.4567Z" fill="white"/>
<path d="M8.06609 58.868C8.06609 58.8931 7.98231 58.9808 7.84902 59.0644C7.71574 59.1479 7.59388 59.198 7.57865 59.173C7.56341 59.1479 7.66624 59.0602 7.79953 58.9725C7.93281 58.8847 8.05467 58.8221 8.06609 58.868Z" fill="white"/>
<path d="M9.04075 58.2328C9.04075 58.2578 8.95698 58.3456 8.81988 58.4333C8.68279 58.521 8.56854 58.5628 8.5533 58.5377C8.53807 58.5127 8.63709 58.4249 8.77418 58.3372C8.91128 58.2495 9.02552 58.2077 9.04075 58.2328Z" fill="white"/>
<path d="M10.0157 57.6147C10.0157 57.6398 9.92814 57.7317 9.79485 57.8152C9.66156 57.8988 9.5397 57.9489 9.52827 57.9197C9.51685 57.8904 9.61206 57.8069 9.74534 57.7234C9.87863 57.6398 10.0005 57.6147 10.0157 57.6147Z" fill="white"/>
<path d="M10.2595 56.541C10.2899 56.541 10.309 56.6789 10.309 56.846C10.309 57.013 10.2823 57.1551 10.2557 57.1551C10.229 57.1551 10.21 57.0172 10.21 56.846C10.21 56.6747 10.2328 56.541 10.2595 56.541Z" fill="white"/>
<path d="M10.2701 55.3091C10.2968 55.3091 10.3158 55.4469 10.3158 55.6182C10.3158 55.7895 10.293 55.9231 10.2663 55.9231C10.2396 55.9231 10.2168 55.7853 10.2168 55.614C10.2168 55.4428 10.2435 55.3091 10.2701 55.3091Z" fill="white"/>
<path d="M10.2775 54.0767C10.3041 54.0767 10.327 54.2145 10.3232 54.3858C10.3194 54.557 10.3003 54.6907 10.2737 54.6907C10.247 54.6907 10.2241 54.5529 10.228 54.3858C10.2318 54.2187 10.2508 54.0767 10.2775 54.0767Z" fill="white"/>
<path d="M10.2858 52.8442C10.3163 52.8442 10.3353 52.9821 10.3353 53.1534C10.3353 53.3246 10.3087 53.4583 10.282 53.4583C10.2554 53.4583 10.2363 53.3204 10.2363 53.1534C10.2363 52.9863 10.2592 52.8442 10.2858 52.8442Z" fill="white"/>
<path d="M10.2975 51.6123C10.3241 51.6123 10.3432 51.7501 10.3432 51.9214C10.3432 52.0927 10.3203 52.2305 10.2936 52.2305C10.267 52.2305 10.2441 52.0885 10.2441 51.9214C10.2441 51.7543 10.2708 51.6123 10.2975 51.6123Z" fill="white"/>
<path d="M10.3048 50.3799C10.3315 50.3799 10.3543 50.5177 10.3505 50.689C10.3467 50.8603 10.3277 50.9981 10.301 50.9981C10.2743 50.9981 10.2515 50.8603 10.2553 50.689C10.2591 50.5177 10.2782 50.3799 10.3048 50.3799Z" fill="white"/>
<path d="M10.3132 49.1475C10.3398 49.1475 10.3627 49.2853 10.3627 49.4566C10.3627 49.6278 10.336 49.7657 10.3094 49.7657C10.2827 49.7657 10.2637 49.6278 10.2637 49.4566C10.2637 49.2853 10.2865 49.1475 10.3132 49.1475Z" fill="white"/>
<path d="M10.3238 47.9155C10.3505 47.9155 10.3695 48.0576 10.3695 48.2246C10.3695 48.3917 10.3467 48.5337 10.32 48.5337C10.2934 48.5337 10.2705 48.3959 10.2705 48.2246C10.2705 48.0534 10.2972 47.9155 10.3238 47.9155Z" fill="white"/>
<path d="M10.3312 46.6871C10.3578 46.6871 10.3807 46.825 10.3769 46.992C10.3731 47.1591 10.354 47.3011 10.3274 47.3011C10.3007 47.3011 10.2779 47.1633 10.2817 46.992C10.2855 46.8208 10.3045 46.6829 10.3312 46.6871Z" fill="white"/>
<path d="M19.9199 57.4308C19.9199 57.4015 20.0456 57.3765 20.1979 57.3765C20.3502 57.3765 20.4797 57.4015 20.4797 57.4308C20.4797 57.46 20.3541 57.4851 20.1979 57.4851C20.0418 57.4851 19.9199 57.46 19.9199 57.4308Z" fill="white"/>
<path d="M18.7969 57.4308C18.7969 57.4015 18.9225 57.3765 19.0749 57.3765C19.2272 57.3765 19.3567 57.4015 19.3567 57.4308C19.3567 57.46 19.231 57.4851 19.0749 57.4851C18.9187 57.4851 18.7969 57.46 18.7969 57.4308Z" fill="white"/>
<path d="M17.6738 57.4308C17.6738 57.4015 17.7995 57.3765 17.9556 57.3765C18.1118 57.3765 18.2336 57.4015 18.2336 57.4308C18.2336 57.46 18.108 57.4851 17.9556 57.4851C17.8033 57.4851 17.6738 57.46 17.6738 57.4308Z" fill="white"/>
<path d="M16.5508 57.4308C16.5508 57.4015 16.6765 57.3765 16.8326 57.3765C16.9887 57.3765 17.1106 57.4015 17.1106 57.4308C17.1106 57.46 16.9849 57.4851 16.8326 57.4851C16.6803 57.4851 16.5508 57.46 16.5508 57.4308Z" fill="white"/>
<path d="M15.4268 57.4308C15.4268 57.4015 15.5524 57.3765 15.7086 57.3765C15.8647 57.3765 15.9866 57.4015 15.9866 57.4308C15.9866 57.46 15.8609 57.4851 15.7086 57.4851C15.5562 57.4851 15.4268 57.46 15.4268 57.4308Z" fill="white"/>
<path d="M14.3037 57.4308C14.3037 57.4015 14.4294 57.3765 14.5855 57.3765C14.7416 57.3765 14.8673 57.4015 14.8673 57.4308C14.8673 57.46 14.7416 57.4851 14.5855 57.4851C14.4294 57.4851 14.3037 57.46 14.3037 57.4308Z" fill="white"/>
<path d="M13.1797 57.4308C13.1797 57.4015 13.3054 57.3765 13.4615 57.3765C13.6176 57.3765 13.7433 57.4015 13.7433 57.4308C13.7433 57.46 13.6176 57.4851 13.4615 57.4851C13.3054 57.4851 13.1797 57.46 13.1797 57.4308Z" fill="white"/>
<path d="M12.0566 57.4308C12.0566 57.4015 12.1823 57.3765 12.3384 57.3765C12.4946 57.3765 12.6202 57.4015 12.6202 57.4308C12.6202 57.46 12.4946 57.4851 12.3384 57.4851C12.1823 57.4851 12.0566 57.46 12.0566 57.4308Z" fill="white"/>
<path d="M10.9326 57.4308C10.9326 57.4015 11.0583 57.3765 11.2144 57.3765C11.3706 57.3765 11.4962 57.4015 11.4962 57.4308C11.4962 57.46 11.3706 57.4851 11.2144 57.4851C11.0583 57.4851 10.9326 57.46 10.9326 57.4308Z" fill="white"/>
<path d="M10.2549 57.4309C10.2554 57.4232 10.2572 57.4157 10.2604 57.4088C10.2635 57.4019 10.2678 57.3958 10.2732 57.3908C10.2785 57.3857 10.2846 57.3819 10.2913 57.3794C10.298 57.377 10.305 57.3761 10.312 57.3766C10.3185 57.3766 10.325 57.378 10.331 57.3808C10.337 57.3835 10.3424 57.3875 10.347 57.3925C10.3516 57.3976 10.3553 57.4036 10.3577 57.4102C10.3602 57.4167 10.3615 57.4238 10.3615 57.4309C10.3615 57.4381 10.3602 57.4451 10.3577 57.4517C10.3553 57.4583 10.3516 57.4643 10.347 57.4693C10.3424 57.4744 10.337 57.4784 10.331 57.4811C10.325 57.4838 10.3185 57.4852 10.312 57.4852C10.305 57.4858 10.298 57.4848 10.2913 57.4824C10.2846 57.48 10.2785 57.4761 10.2732 57.4711C10.2678 57.4661 10.2635 57.4599 10.2604 57.453C10.2572 57.4461 10.2554 57.4386 10.2549 57.4309Z" fill="white"/>
<path d="M21.7214 53.68C21.8073 53.6937 21.8945 53.6937 21.9804 53.68C22.0923 53.6532 22.1975 53.6001 22.2889 53.5244C22.3803 53.4487 22.4556 53.3522 22.5097 53.2414C22.5832 53.073 22.6191 52.8878 22.6144 52.7011C22.6098 52.5145 22.5648 52.3317 22.4831 52.1679C22.4634 52.1241 22.435 52.0856 22.4001 52.0553C22.3652 52.0249 22.3246 52.0035 22.2812 51.9924C22.2351 51.9852 22.1881 51.9881 22.1429 52.001C22.0978 52.0139 22.0555 52.0366 22.0185 52.0676C21.8657 52.233 21.7542 52.4387 21.6948 52.665C21.6131 52.911 21.5631 53.1682 21.5463 53.4294H21.4549C21.4549 52.594 21.4549 51.9006 21.4549 51.3909C21.4549 51.1528 21.4549 50.9732 21.4549 50.7936C21.446 50.7229 21.446 50.6512 21.4549 50.5806C21.4667 50.6509 21.4731 50.7221 21.4739 50.7936C21.4739 50.9523 21.4739 51.1528 21.4968 51.3909C21.5158 51.9006 21.531 52.6107 21.5463 53.4252H21.4549C21.4679 53.154 21.518 52.8865 21.6034 52.6316C21.6409 52.5103 21.688 52.3929 21.7443 52.2807C21.7966 52.166 21.8706 52.0649 21.9613 51.9841C22.0094 51.9447 22.0641 51.9163 22.1223 51.9006C22.1806 51.8848 22.241 51.8819 22.3003 51.8922C22.3565 51.9065 22.409 51.9346 22.4539 51.9744C22.4987 52.0142 22.5347 52.0646 22.5592 52.1219C22.644 52.3006 22.6883 52.4991 22.6883 52.7005C22.6883 52.9019 22.644 53.1003 22.5592 53.279C22.498 53.3963 22.4134 53.497 22.3119 53.5736C22.2104 53.6502 22.0945 53.7009 21.9728 53.7218C21.9084 53.733 21.8429 53.733 21.7786 53.7218C21.7405 53.6995 21.7214 53.6856 21.7214 53.68Z" fill="white"/>
<path d="M16.7481 45.0541C16.7481 45.0541 16.7481 45.0541 16.7215 45.0959C16.6941 45.1299 16.6603 45.157 16.6224 45.1753C16.5614 45.2099 16.493 45.2258 16.4244 45.2212C16.3309 45.2188 16.2414 45.1786 16.1731 45.1084C16.0965 45.0175 16.0392 44.9091 16.0055 44.791C15.9594 44.6627 15.9199 44.5316 15.8875 44.3983C15.8063 44.0822 15.7578 43.7572 15.7428 43.4292H15.8341C15.8924 43.8569 15.8808 44.2925 15.7999 44.7158C15.7499 44.9716 15.6224 45.2013 15.4381 45.3674C15.3892 45.4063 15.3336 45.4338 15.2746 45.4481C15.2157 45.4625 15.1547 45.4635 15.0954 45.451C15.0392 45.4368 14.9864 45.4098 14.9404 45.3716C14.8945 45.3335 14.8564 45.285 14.8288 45.2296C14.7444 45.0471 14.7019 44.8447 14.7053 44.6401C14.7086 44.4355 14.7575 44.2348 14.8478 44.0558C14.9688 43.8175 15.1554 43.6274 15.381 43.5127C15.4419 43.4825 15.5058 43.4601 15.5714 43.4459C15.6133 43.4459 15.6399 43.4459 15.6399 43.4459C15.6399 43.4459 15.5485 43.4752 15.4 43.5587C15.2226 43.6582 15.0726 43.8078 14.9655 43.9921C14.8583 44.1764 14.798 44.3887 14.7907 44.6072C14.7759 44.8075 14.8157 45.0081 14.905 45.1836C14.9267 45.2273 14.9566 45.2655 14.9927 45.2958C15.0288 45.326 15.0702 45.3476 15.1144 45.3591C15.209 45.3748 15.3055 45.351 15.3848 45.2922C15.5488 45.1368 15.6623 44.9272 15.7085 44.6949C15.7845 44.2823 15.7961 43.8586 15.7428 43.4417H15.8341C15.8457 43.7631 15.8878 44.0823 15.9598 44.3941C15.9941 44.532 16.0284 44.6656 16.0665 44.7826C16.0954 44.8923 16.1461 44.9936 16.215 45.0792C16.2658 45.1293 16.3279 45.1635 16.3949 45.1782C16.4619 45.1929 16.5313 45.1876 16.5958 45.1627C16.6507 45.134 16.7019 45.0975 16.7481 45.0541Z" fill="white"/>
<path d="M49.758 51.1733C49.758 51.2318 46.144 51.9461 41.6618 52.7648C37.1796 53.5836 33.5428 54.1934 33.5352 54.135C33.5276 54.0765 37.1491 53.3622 41.6313 52.5435C46.1136 51.7247 49.7466 51.1107 49.758 51.1733Z" fill="white"/>
<path d="M50.5764 53.2788C50.5764 53.3373 46.9624 54.0516 42.484 54.8661C38.0056 55.6807 34.365 56.2989 34.3535 56.2404C34.3421 56.1819 37.9675 55.4676 42.4497 54.6489C46.9319 53.8302 50.5764 53.2162 50.5764 53.2788Z" fill="white"/>
<path d="M51.3723 55.3798C51.3723 55.4425 47.7584 56.1526 43.28 56.9713C38.8016 57.7901 35.1609 58.4041 35.1533 58.3456C35.1457 58.2871 38.7673 57.5728 43.2457 56.7541C47.7241 55.9354 51.3647 55.3213 51.3723 55.3798Z" fill="white"/>
<path d="M16.8704 20.931C16.696 20.8094 16.5328 20.6695 16.383 20.5133C16.0745 20.2376 15.6404 19.8325 15.1111 19.3187C14.0486 18.2953 12.6091 16.85 11.0706 15.1875C9.53211 13.5249 8.19544 11.9669 7.26243 10.814C6.78641 10.2375 6.4094 9.76968 6.15425 9.4355C6.01399 9.27217 5.8866 9.0961 5.77344 8.90918C5.93291 9.05071 6.07957 9.20878 6.21138 9.3812L7.35383 10.7095C8.32491 11.8332 9.68063 13.3746 11.2153 15.0329C12.75 16.6912 14.1705 18.1532 15.2063 19.2101L16.4363 20.4632C16.5913 20.6072 16.7364 20.7636 16.8704 20.931Z" fill="white"/>
<path d="M17.7004 14.8574C17.6976 15.0371 17.6798 15.216 17.6471 15.3921C17.6014 15.7346 17.5443 16.2275 17.51 16.8499C17.4132 18.4797 17.5416 20.1161 17.8908 21.7038L17.9251 21.8667L17.7765 21.8375L17.2396 21.7289C15.3736 21.3571 13.6866 21.0062 12.4679 20.7389L11.0247 20.4172C10.8466 20.3866 10.6718 20.3362 10.5029 20.2668C10.6833 20.2733 10.8628 20.2957 11.0399 20.3337L12.4946 20.5885C13.717 20.8141 15.4079 21.1399 17.2739 21.5158L17.8108 21.6244L17.7004 21.7581C17.3439 20.149 17.2333 18.4862 17.3729 16.8374C17.412 16.3475 17.4781 15.8607 17.5709 15.3796C17.5954 15.2006 17.6389 15.0254 17.7004 14.8574Z" fill="white"/>
<path d="M118.72 3.87158H95.25V30.7057H118.72V3.87158Z" fill="#E0E0E0"/>
<path d="M117.132 3.87158H93.6621V30.7057H117.132V3.87158Z" fill="#FAFAFA"/>
<path d="M113.975 7.47607H96.8154V27.0962H113.975V7.47607Z" fill="white"/>
<path d="M96.8144 27.2261C96.6954 27.4263 96.5533 27.6088 96.3917 27.7691C96.1175 28.0866 95.7329 28.5126 95.3025 28.9805C94.8722 29.4483 94.4724 29.8619 94.1601 30.1584C94.0114 30.3292 93.8453 30.4806 93.665 30.6096C93.786 30.4122 93.9279 30.2314 94.0877 30.0707C94.3619 29.7574 94.7466 29.3272 95.1807 28.8593C95.6148 28.3915 96.0109 27.9738 96.3231 27.6772C96.4711 27.5072 96.6358 27.3559 96.8144 27.2261Z" fill="#E0E0E0"/>
<path d="M113.975 27.1802C114.155 27.3129 114.319 27.4685 114.466 27.6438C114.755 27.9446 115.148 28.3665 115.574 28.8385C116.001 29.3105 116.378 29.7491 116.648 30.0708C116.804 30.2338 116.942 30.416 117.059 30.6138C116.879 30.4811 116.714 30.3255 116.568 30.1501C116.279 29.8494 115.886 29.4275 115.46 28.9513C115.033 28.4751 114.656 28.0407 114.386 27.719C114.23 27.5582 114.091 27.3773 113.975 27.1802Z" fill="#E0E0E0"/>
<path d="M113.929 7.53047C114.049 7.3312 114.191 7.14883 114.351 6.98744C114.626 6.67416 115.01 6.24391 115.441 5.77607C115.871 5.30822 116.271 4.89469 116.564 4.59811C116.713 4.42735 116.879 4.27597 117.059 4.14697C116.938 4.34431 116.796 4.5252 116.636 4.68583C116.362 5.00329 115.978 5.43354 115.543 5.90138C115.109 6.36922 114.713 6.78276 114.401 7.07934C114.259 7.24813 114.101 7.3994 113.929 7.53047Z" fill="#E0E0E0"/>
<path d="M96.7692 7.57642C96.5879 7.44401 96.4217 7.28836 96.2741 7.11276C95.9847 6.812 95.5925 6.39011 95.166 5.91809C94.7394 5.44607 94.3624 5.00747 94.0959 4.68583C93.94 4.52451 93.8019 4.34365 93.6846 4.14697C93.8645 4.27965 94.0294 4.4353 94.1758 4.61064C94.4652 4.91139 94.8575 5.33329 95.284 5.80948C95.7105 6.28568 96.0875 6.72011 96.3579 7.06263C96.5128 7.21567 96.6509 7.38811 96.7692 7.57642Z" fill="#E0E0E0"/>
<path d="M113.929 27.0962C113.925 27.0643 113.925 27.032 113.929 27.0001C113.929 26.9333 113.929 26.8456 113.929 26.7286C113.929 26.4822 113.929 26.1271 113.929 25.6676C113.929 24.7403 113.929 23.3869 113.91 21.6701C113.91 18.2323 113.91 13.3366 113.876 7.46771L113.944 7.54289H96.8343L96.9104 7.45935C96.9104 14.6608 96.9104 21.3985 96.9104 27.092L96.8457 27.021L109.237 27.0586H112.718H113.64H112.733L109.268 27.0795L96.8343 27.1129H96.7695V27.0419C96.7695 21.3609 96.7695 14.6232 96.7695 7.40923V7.32568H96.8495H113.96H114.024V7.48859C114.024 13.37 113.998 18.2824 113.99 21.7285C113.99 23.437 113.99 24.7862 113.99 25.7094C113.99 26.1647 113.99 26.5114 113.99 26.7578C113.99 26.8706 113.99 26.9583 113.99 27.021C113.99 27.0837 113.929 27.0962 113.929 27.0962Z" fill="#E0E0E0"/>
<path d="M108.259 14.1475H102.531V20.4299H108.259V14.1475Z" fill="#EBEBEB"/>
<path d="M60.878 4.56466C60.878 4.62732 58.2732 4.67327 55.0591 4.67327C51.845 4.67327 49.2402 4.62732 49.2402 4.56466C49.2402 4.502 51.845 4.45605 55.0591 4.45605C58.2732 4.45605 60.878 4.4853 60.878 4.56466Z" fill="white"/>
<path d="M62.515 6.23556C62.515 6.29404 59.2781 6.34417 55.2795 6.34417C51.2809 6.34417 48.0439 6.29404 48.0439 6.23556C48.0439 6.17708 51.2809 6.12695 55.2795 6.12695C59.2781 6.12695 62.515 6.18126 62.515 6.23556Z" fill="white"/>
<path d="M58.4969 11.1981C58.4008 11.3003 58.2933 11.3887 58.177 11.4613L57.2706 12.1087L56.6385 12.5264L56.2843 12.7687C56.2184 12.8305 56.141 12.8757 56.0574 12.901C55.9738 12.9262 55.8861 12.931 55.8007 12.9149C55.7514 12.8979 55.706 12.8693 55.6679 12.8311C55.6297 12.7928 55.5997 12.7459 55.5798 12.6935C55.5465 12.599 55.531 12.4982 55.5341 12.3969C55.5456 12.211 55.5776 12.0273 55.6293 11.8497C55.7169 11.4989 55.8007 11.1396 55.8921 10.772C56.0482 10.041 56.33 9.32255 56.2272 8.71269C56.2031 8.57392 56.145 8.44498 56.0591 8.33974C55.9732 8.23449 55.8628 8.15691 55.7397 8.11535C55.517 8.0356 55.277 8.0356 55.0543 8.11535C54.7309 8.26845 54.4442 8.50148 54.2165 8.79623C54.0451 9.00091 53.9499 9.11787 53.9385 9.10534C53.9975 8.97427 54.0718 8.85212 54.1594 8.74193C54.3742 8.40557 54.6675 8.13868 55.0086 7.96915C55.2576 7.8626 55.5313 7.8465 55.7893 7.9232C55.9427 7.97123 56.0812 8.06431 56.19 8.1924C56.2987 8.3205 56.3735 8.47873 56.4062 8.65003C56.4602 9.00832 56.4394 9.3754 56.3452 9.72356C56.2615 10.0744 56.1739 10.4379 56.0825 10.8096C55.9911 11.1814 55.9035 11.5406 55.8159 11.8915C55.7673 12.0497 55.7366 12.2138 55.7245 12.3802C55.7245 12.5348 55.7626 12.6768 55.854 12.7019C55.9454 12.7269 56.0711 12.6643 56.1929 12.5849L56.5509 12.351L57.1945 11.9333C57.5753 11.6785 57.9142 11.478 58.1389 11.3443C58.2519 11.2788 58.3723 11.2296 58.4969 11.1981Z" fill="white"/>
<path d="M59.1483 11.0269C59.023 10.5761 58.96 10.1072 58.9617 9.63595C58.893 9.17114 58.893 8.69723 58.9617 8.23242C59.0872 8.68327 59.1514 9.152 59.1521 9.62342C59.2184 10.0885 59.2171 10.5623 59.1483 11.0269Z" fill="white"/>
<path d="M60.238 9.60215C59.9353 9.72652 59.6126 9.78195 59.2897 9.76506C58.9696 9.81929 58.6427 9.79937 58.3301 9.70658C58.6348 9.5856 58.9583 9.53167 59.2821 9.54785C59.6007 9.4931 59.9262 9.51159 60.238 9.60215Z" fill="white"/>
<path d="M54.3232 15.0074C54.3232 15.0074 54.2699 15.0074 54.1747 15.0074C54.0317 15.0005 53.8893 14.9838 53.7482 14.9573C53.2287 14.8758 52.7183 14.7358 52.2249 14.5396C50.5625 13.8959 49.1248 12.6991 48.1124 11.116C47.1 9.53298 46.5633 7.64273 46.5774 5.70906C46.5763 5.13087 46.6299 4.55411 46.7374 3.98807C46.7631 3.83275 46.7974 3.6793 46.8402 3.52858C46.8492 3.47452 46.8659 3.42236 46.8897 3.37402C46.778 4.14639 46.7207 4.92704 46.7183 5.70906C46.7434 7.59873 47.2859 9.43648 48.2754 10.9836C49.2648 12.5308 50.6555 13.7159 52.2668 14.385C52.9364 14.6511 53.624 14.8592 54.3232 15.0074Z" fill="white"/>
<path d="M56.4754 15.2959C56.4654 15.3979 56.4383 15.497 56.3955 15.5883C56.2961 15.8415 56.1681 16.0801 56.0147 16.2984C55.4859 17.0285 54.7455 17.5384 53.9164 17.7437C53.5764 17.825 53.2275 17.8517 52.8805 17.8231L52.6406 17.798L52.831 17.6351C53.2865 17.2415 53.6408 16.7247 53.8592 16.1355C54.0192 15.7178 54.0535 15.4087 54.0801 15.4129C54.099 15.675 54.0611 15.9384 53.9697 16.1815C53.7794 16.8174 53.4249 17.379 52.9491 17.798L52.8958 17.6142C53.2239 17.6352 53.5532 17.6071 53.8745 17.5307C54.6626 17.3328 55.374 16.8681 55.908 16.2023C56.1121 15.9117 56.3015 15.6091 56.4754 15.2959Z" fill="white"/>
<path d="M64.697 12.1253C64.697 12.1253 64.6246 12.2339 64.4609 12.4051C64.234 12.6444 63.9936 12.8676 63.7411 13.0735C62.9091 13.7585 61.9922 14.3098 61.0183 14.7109C60.0392 15.1107 59.0136 15.3568 57.9717 15.4419C57.6572 15.4638 57.3418 15.4638 57.0273 15.4419C56.9118 15.4479 56.7961 15.4338 56.6846 15.4002C56.6846 15.3626 57.1758 15.3668 57.9565 15.2707C58.9757 15.144 59.9769 14.8817 60.9383 14.4896C61.8957 14.0912 62.8061 13.5681 63.6497 12.9315C64.3085 12.4553 64.6665 12.0835 64.697 12.1253Z" fill="white"/>
<path d="M59.8297 39.7906C59.8297 39.8366 49.4791 39.8783 36.7141 39.8783C23.9491 39.8783 13.5947 39.8366 13.5947 39.7906C13.5947 39.7447 23.9453 39.6987 36.7141 39.6987C49.4829 39.6987 59.8297 39.7405 59.8297 39.7906Z" fill="#FAFAFA"/>
<path d="M52.9222 39.6527C52.9018 39.6079 52.8877 39.56 52.8803 39.5107L52.7698 39.093C52.6746 38.717 52.5299 38.1656 52.3281 37.4639C51.7519 35.4708 50.9967 33.5455 50.0736 31.7161C48.716 29.0031 46.8682 26.6223 44.6432 24.7193C43.3287 23.6055 41.8724 22.7091 40.3209 22.0585C38.655 21.3606 36.8869 21.0024 35.1037 21.0017C31.6367 21.0088 28.261 22.2212 25.4614 24.4645C24.2474 25.4362 23.163 26.5891 22.2397 27.8898C21.4315 29.0216 20.737 30.2456 20.1681 31.5407C19.347 33.421 18.7885 35.4262 18.5115 37.4889C18.4163 38.2199 18.363 38.7922 18.3439 39.1598C18.3439 39.3478 18.3211 39.494 18.3135 39.6026C18.3176 39.6526 18.3176 39.7029 18.3135 39.753V39.6527C18.3135 39.5441 18.3135 39.3979 18.3135 39.2099C18.3311 38.6425 18.3756 38.0764 18.4468 37.514C18.7044 35.4371 19.2502 33.4156 20.0652 31.5198C20.6292 30.2122 21.3227 28.9767 22.1331 27.8355C23.06 26.5179 24.1509 25.3494 25.3738 24.3643C28.1947 22.0901 31.6029 20.8611 35.1037 20.8555C36.9066 20.856 38.6941 21.2184 40.378 21.9248C41.9428 22.5819 43.4108 23.4883 44.7346 24.6149C46.9784 26.5308 48.8375 28.934 50.1955 31.6743C51.1104 33.5089 51.8506 35.442 52.4042 37.443C52.6023 38.1489 52.7356 38.6961 52.8193 39.0846C52.8612 39.2684 52.8917 39.4104 52.9145 39.5023C52.9374 39.5942 52.9222 39.6527 52.9222 39.6527Z" fill="#FAFAFA"/>
<path d="M18.7784 39.1097C18.8127 39.1431 18.7365 39.3186 18.6032 39.5024C18.4699 39.6861 18.3366 39.8156 18.2986 39.7864C18.2605 39.7572 18.3405 39.5817 18.4738 39.3937C18.607 39.2058 18.7441 39.0805 18.7784 39.1097Z" fill="#FAFAFA"/>
<path d="M20.9948 36.6456C21.0215 36.6832 20.7892 36.9756 20.4693 37.2972C20.1494 37.6188 19.8676 37.8569 19.8333 37.8235C19.7991 37.7901 20.039 37.4935 20.3589 37.1677C20.6788 36.8419 20.9644 36.608 20.9948 36.6456Z" fill="#FAFAFA"/>
<path d="M23.5912 34.686C23.6141 34.7278 23.3208 34.945 22.9514 35.1956C22.7395 35.3719 22.501 35.5062 22.2469 35.5925C22.2203 35.5507 22.4907 35.2959 22.8677 35.0411C23.0806 34.863 23.3283 34.7415 23.5912 34.686Z" fill="#FAFAFA"/>
<path d="M26.5281 33.4289C26.3084 33.5934 26.0612 33.7084 25.8007 33.7672C25.5591 33.88 25.3013 33.945 25.0391 33.9594C25.253 33.7814 25.5 33.6573 25.7626 33.596C26.0043 33.4822 26.2651 33.4253 26.5281 33.4289Z" fill="#FAFAFA"/>
<path d="M29.6009 32.627C29.115 32.8625 28.5898 32.9848 28.0586 32.9862C28.5445 32.7507 29.0697 32.6283 29.6009 32.627Z" fill="#FAFAFA"/>
<path d="M32.7315 32.1717C32.491 32.2867 32.2321 32.3477 31.9698 32.3514C31.7086 32.4112 31.439 32.4112 31.1777 32.3514C31.418 32.2358 31.677 32.1747 31.9394 32.1717C32.201 32.1166 32.4698 32.1166 32.7315 32.1717Z" fill="#FAFAFA"/>
<path d="M35.8919 32.134C35.6347 32.2145 35.3652 32.2372 35.0998 32.2008C34.8331 32.2197 34.5656 32.1828 34.3115 32.0922C34.5681 32.0077 34.838 31.9835 35.1036 32.0212C35.3706 32.002 35.6384 32.0403 35.8919 32.134Z" fill="#FAFAFA"/>
<path d="M39.0406 32.4224C38.5111 32.4804 37.9765 32.4221 37.4678 32.2512C37.7291 32.1923 37.9986 32.1923 38.2599 32.2512C38.5281 32.2483 38.794 32.3066 39.0406 32.4224Z" fill="#FAFAFA"/>
<path d="M42.1524 33.0031C41.8861 33.0337 41.617 33.0067 41.3603 32.9237C41.0931 32.8971 40.8339 32.8103 40.5986 32.6689C40.8636 32.6384 41.1315 32.6654 41.3869 32.7483C41.6553 32.7745 41.9159 32.8613 42.1524 33.0031Z" fill="#FAFAFA"/>
<path d="M45.1993 33.9136C44.931 33.9175 44.665 33.8592 44.4187 33.7424C44.1588 33.6815 43.9111 33.5697 43.6875 33.4124C43.9488 33.4044 44.2087 33.4586 44.4491 33.5711C44.7175 33.6292 44.9726 33.7457 45.1993 33.9136Z" fill="#FAFAFA"/>
<path d="M48.0928 35.2963C47.8225 35.2584 47.5628 35.1572 47.3312 34.9997C47.0792 34.9004 46.8485 34.7455 46.6533 34.5444C46.9232 34.5843 47.1826 34.6853 47.415 34.841C47.6659 34.9426 47.8962 35.0973 48.0928 35.2963Z" fill="#FAFAFA"/>
<path d="M50.7435 37.1716C50.4891 37.0853 50.2533 36.9432 50.0504 36.7539C49.6963 36.4824 49.4297 36.2234 49.4525 36.1816C49.707 36.2679 49.9428 36.41 50.1456 36.5994C50.5036 36.8792 50.7702 37.1466 50.7435 37.1716Z" fill="#FAFAFA"/>
<path d="M52.5108 38.8929C52.4765 38.9305 52.328 38.8219 52.1719 38.659C52.0157 38.496 51.9205 38.3331 51.951 38.2955C51.9814 38.258 52.13 38.3666 52.2861 38.5295C52.4422 38.6924 52.5412 38.8595 52.5108 38.8929Z" fill="#FAFAFA"/>
<path d="M19.2617 41.1608C19.2312 41.1942 18.9571 40.9436 18.6943 40.5635C18.5063 40.3498 18.3747 40.0841 18.3135 39.7949C18.3516 39.7698 18.5496 40.0831 18.8123 40.4549C19.0751 40.8266 19.296 41.1232 19.2617 41.1608Z" fill="#FAFAFA"/>
<path d="M21.6836 43.3162C21.4325 43.2301 21.2004 43.0878 21.002 42.8984C20.6478 42.6186 20.385 42.3638 20.4155 42.3262C20.6658 42.4143 20.8975 42.5563 21.0972 42.7439C21.4437 43.0196 21.7065 43.2744 21.6836 43.3162Z" fill="#FAFAFA"/>
<path d="M24.4412 44.9163C23.9307 44.7796 23.4511 44.5293 23.0322 44.1812C23.2936 44.222 23.5448 44.32 23.771 44.4694C24.0203 44.5657 24.2485 44.7179 24.4412 44.9163Z" fill="#FAFAFA"/>
<path d="M27.4223 45.9188C27.164 45.9401 26.9045 45.9017 26.6607 45.8061C26.3966 45.7667 26.1441 45.6624 25.9219 45.5011C26.1808 45.498 26.4384 45.5432 26.6835 45.6348C26.9447 45.6737 27.1961 45.7703 27.4223 45.9188Z" fill="#FAFAFA"/>
<path d="M30.4914 46.5577C30.2293 46.5997 29.9622 46.5812 29.7069 46.5034C29.4406 46.4868 29.1808 46.407 28.9453 46.2695C29.2003 46.2356 29.4588 46.2554 29.7069 46.328C29.9803 46.343 30.2477 46.4213 30.4914 46.5577Z" fill="#FAFAFA"/>
<path d="M33.5959 46.9293C33.3372 46.9883 33.0702 46.9883 32.8114 46.9293C32.5501 46.9329 32.2908 46.8775 32.0498 46.7664C32.3085 46.7074 32.5756 46.7074 32.8343 46.7664C33.0956 46.7641 33.3546 46.8195 33.5959 46.9293Z" fill="#FAFAFA"/>
<path d="M36.7186 46.9965C36.2036 47.1135 35.6722 47.1135 35.1572 46.9965C35.4088 46.9067 35.6747 46.8754 35.9379 46.9046C36.2011 46.878 36.4665 46.9093 36.7186 46.9965Z" fill="#FAFAFA"/>
<path d="M39.8293 46.7168C39.5903 46.8369 39.3306 46.8996 39.0677 46.9006C38.8089 46.9595 38.5419 46.9595 38.2832 46.9006C38.5233 46.7841 38.7823 46.7216 39.0448 46.7168C39.3038 46.6608 39.5703 46.6608 39.8293 46.7168Z" fill="#FAFAFA"/>
<path d="M42.8914 46.048C42.4133 46.2905 41.8948 46.4228 41.3682 46.4365C41.5938 46.2867 41.8454 46.19 42.107 46.1524C42.3596 46.0611 42.6262 46.0257 42.8914 46.048Z" fill="#FAFAFA"/>
<path d="M45.8461 44.9497C45.6386 45.1284 45.4003 45.2591 45.1454 45.334C44.9084 45.4652 44.649 45.5407 44.3838 45.5554C44.5926 45.3765 44.8322 45.2458 45.0883 45.1711C45.3246 45.0417 45.5824 44.9663 45.8461 44.9497Z" fill="#FAFAFA"/>
<path d="M48.6307 43.4126C48.6536 43.4544 48.3642 43.6716 47.9871 43.9013C47.7685 44.065 47.5226 44.1799 47.2636 44.2397C47.2445 44.1937 47.534 43.9765 47.9072 43.7468C48.1258 43.584 48.3718 43.4704 48.6307 43.4126Z" fill="#FAFAFA"/>
<path d="M51.1779 41.4282C51.2046 41.4658 50.9494 41.7332 50.6067 42.0214C50.264 42.3096 49.9631 42.5101 49.9365 42.4683C49.9098 42.4266 50.165 42.1634 50.5077 41.8794C50.7001 41.6795 50.9283 41.5258 51.1779 41.4282Z" fill="#FAFAFA"/>
<path d="M52.9221 39.6527C52.9525 39.6903 52.8497 39.8574 52.6898 40.0329C52.5298 40.2083 52.3737 40.3169 52.3432 40.2835C52.3128 40.2501 52.4156 40.0788 52.5755 39.9034C52.7355 39.7279 52.8878 39.6277 52.9221 39.6527Z" fill="#FAFAFA"/>
<path d="M34.7304 50.0415C34.6885 50.0415 34.6504 42.0673 34.6504 32.2384C34.6504 22.4095 34.6885 14.4312 34.7304 14.4312C34.7723 14.4312 34.8141 22.4012 34.8141 32.2384C34.8141 42.0756 34.7761 50.0415 34.7304 50.0415Z" fill="#FAFAFA"/>
<path d="M49.3839 22.5265C49.4182 22.5641 46.166 26.3486 42.1217 30.9811C38.0774 35.6135 34.7758 39.3354 34.7415 39.3354C34.7072 39.3354 37.9632 35.5175 42.0075 30.8808C46.0517 26.2442 49.3534 22.5014 49.3839 22.5265Z" fill="#FAFAFA"/>
<path d="M48.4968 22.4263C48.7068 22.3036 48.9275 22.2043 49.1556 22.1297C49.5745 21.9626 50.1685 21.712 50.8616 21.4781L50.9835 21.4321L50.9644 21.57C50.9073 21.9543 50.8464 22.3678 50.7817 22.7981C50.7169 23.2283 50.6712 23.5291 50.6179 23.8674V23.9593L50.5341 23.9384C49.9042 23.7693 49.3172 23.4466 48.8166 22.9944C48.6728 22.8664 48.5379 22.7267 48.413 22.5767C48.3658 22.5235 48.326 22.463 48.2949 22.3971C48.2949 22.3971 48.5006 22.6101 48.8776 22.9192C49.384 23.3306 49.9621 23.6235 50.576 23.7797L50.4808 23.8465C50.5303 23.5124 50.5836 23.1489 50.6369 22.7772C50.6903 22.4054 50.7664 21.9417 50.8274 21.5491L50.9264 21.6452C50.2295 21.8916 49.6278 22.1005 49.2013 22.2383C48.9724 22.3254 48.7365 22.3884 48.4968 22.4263Z" fill="#FAFAFA"/>
<path d="M53.1094 25.7762C53.4424 24.9883 53.8241 24.2263 54.2518 23.4955C54.6308 22.7346 55.057 22.0033 55.5276 21.3066C55.1946 22.0945 54.8129 22.8566 54.3851 23.5874C54.0062 24.3482 53.5799 25.0796 53.1094 25.7762Z" fill="#FAFAFA"/>
<path d="M55.7548 26.9918C55.2375 26.2505 54.7643 25.4733 54.3381 24.6652C53.8652 23.8896 53.4378 23.0818 53.0586 22.2466C53.5749 22.9873 54.0481 23.763 54.4752 24.5691C54.9487 25.3457 55.3761 26.155 55.7548 26.9918Z" fill="#FAFAFA"/>
<path d="M57.9373 26.031C57.6682 25.3221 57.288 24.6703 56.8139 24.1053L56.9433 24.0803C56.6699 24.7981 56.6282 25.5969 56.8253 26.3443L56.6806 26.3735C56.6539 25.8389 56.6349 25.3919 56.6273 25.0744C56.6055 24.9096 56.6055 24.7422 56.6273 24.5774C56.6715 24.7373 56.6959 24.9031 56.6996 25.0703C56.7339 25.3836 56.772 25.8305 56.8139 26.361L56.871 27.0669L56.673 26.3903C56.536 25.9169 56.497 25.416 56.5587 24.9241C56.5958 24.6103 56.6727 24.3038 56.7872 24.0134L56.8367 23.8965L56.9167 23.9884C57.2723 24.3981 57.5574 24.875 57.7583 25.3961C57.8529 25.5939 57.9135 25.8091 57.9373 26.031Z" fill="#FAFAFA"/>
<path d="M40.142 39.1561C40.142 39.1561 40.2258 39.1227 40.3629 39.0391C40.5514 38.919 40.7047 38.7421 40.8046 38.5295C40.9601 38.2187 41.0214 37.8618 40.9798 37.5103C40.9202 37.0715 40.7913 36.6474 40.599 36.2571L40.4695 35.9564L40.6104 35.8687C40.7078 36.0697 40.738 36.3018 40.6955 36.5246C40.6531 36.7475 40.5408 36.947 40.3781 37.0884C40.236 37.2097 40.0592 37.2719 39.8792 37.2638C39.728 37.2494 39.5832 37.1902 39.4603 37.0926C39.2817 36.9601 39.1573 36.7562 39.1138 36.5245C39.0897 36.4444 39.0897 36.358 39.1138 36.278C39.1138 36.278 39.1138 36.3657 39.1595 36.5119C39.2228 36.7113 39.3464 36.8808 39.5098 36.9923C39.624 37.0718 39.7555 37.1165 39.8907 37.1218C40.0304 37.1184 40.1649 37.0623 40.2715 36.9631C40.3995 36.8423 40.4873 36.6783 40.5211 36.4968C40.5548 36.3153 40.5327 36.1267 40.4581 35.9606L40.599 35.877L40.7323 36.1778C40.9275 36.5875 41.0563 37.0313 41.1131 37.4894C41.1488 37.8732 41.0685 38.2592 40.8846 38.588C40.7648 38.8106 40.5853 38.9871 40.3705 39.0934C40.3008 39.1362 40.2219 39.1578 40.142 39.1561Z" fill="#FAFAFA"/>
<path d="M46.5096 26.1063C46.3519 26.1457 46.1913 26.1694 46.0298 26.1773C45.7213 26.2107 45.2681 26.2525 44.7236 26.2943C43.6192 26.3736 42.0921 26.4488 40.4013 26.453C38.7105 26.4572 37.1834 26.3945 36.0752 26.3193C35.523 26.2817 35.0775 26.2441 34.769 26.2107C34.6087 26.2055 34.4493 26.1831 34.293 26.1439C34.4526 26.1276 34.6132 26.1276 34.7728 26.1439L36.0828 26.194C37.1872 26.2358 38.7143 26.2776 40.4013 26.2734C42.0883 26.2692 43.6116 26.2149 44.7197 26.1689L46.0259 26.1063C46.1868 26.0902 46.3487 26.0902 46.5096 26.1063Z" fill="#FAFAFA"/>
<path d="M37.8991 22.8902C37.648 23.0363 37.3634 23.0987 37.0804 23.0698C36.7962 23.0976 36.5106 23.0352 36.2578 22.8902C36.5314 22.863 36.8067 22.863 37.0804 22.8902C37.3527 22.8628 37.6268 22.8628 37.8991 22.8902Z" fill="#FAFAFA"/>
<path d="M36.2617 24.8618C36.2617 24.8618 36.3226 24.9161 36.4216 25.0247C36.5523 25.1783 36.7055 25.3068 36.8748 25.4048C36.9941 25.478 37.1285 25.5164 37.2652 25.5164C37.4018 25.5164 37.5362 25.478 37.6555 25.4048C37.8029 25.3253 37.921 25.1928 37.9903 25.0294C38.0595 24.8661 38.0758 24.6816 38.0363 24.5067C38.0044 24.3465 37.9259 24.202 37.8125 24.095C37.6992 23.988 37.5572 23.9243 37.408 23.9136C37.2815 23.9068 37.1555 23.9364 37.0427 23.9994C36.9298 24.0624 36.8339 24.1567 36.7644 24.2728L36.7187 24.3605L36.6654 24.2854C36.5876 24.1766 36.5416 24.0446 36.5334 23.9067C36.5253 23.7688 36.5553 23.6314 36.6197 23.5126C36.7149 23.3497 36.8139 23.3121 36.8177 23.3204C36.766 23.391 36.7202 23.4665 36.6806 23.546C36.6362 23.6515 36.6198 23.7686 36.6332 23.8838C36.6467 23.9991 36.6895 24.1078 36.7568 24.1976H36.6578C36.7341 24.0515 36.8454 23.931 36.9796 23.8493C37.1139 23.7676 37.266 23.7277 37.4194 23.734C37.5616 23.7454 37.6991 23.7949 37.8199 23.8781C37.9406 23.9614 38.0409 24.0759 38.1119 24.2115C38.183 24.3471 38.2226 24.4998 38.2273 24.6561C38.2321 24.8125 38.2018 24.9677 38.1391 25.1082C38.0522 25.2854 37.9198 25.4306 37.7583 25.526C37.6066 25.615 37.4347 25.6541 37.2633 25.6387C37.118 25.6238 36.9776 25.5739 36.852 25.4926C36.6769 25.3773 36.5242 25.2254 36.4026 25.0456C36.2884 24.9453 36.2503 24.866 36.2617 24.8618Z" fill="#FAFAFA"/>
<path d="M38.999 25.292C39.1092 24.9106 39.2696 24.549 39.475 24.2185C39.6347 23.8592 39.8427 23.5283 40.092 23.2368C39.9818 23.6182 39.8214 23.9798 39.6159 24.3104C39.4562 24.6696 39.2483 25.0005 38.999 25.292Z" fill="#FAFAFA"/>
<path d="M40.3973 25.8017C39.672 25.3172 39.1003 24.5997 38.7598 23.7465C38.8017 23.7214 39.1063 24.231 39.5557 24.795C40.005 25.3589 40.4277 25.7599 40.3973 25.8017Z" fill="#FAFAFA"/>
<path d="M26.1042 19.5063C26.203 19.6316 26.3268 19.7303 26.466 19.7946C26.6561 19.8659 26.8609 19.875 27.0557 19.8209C27.2504 19.7667 27.4266 19.6516 27.5628 19.4896C27.9369 18.961 28.1429 18.3125 28.1492 17.6433C28.1974 16.8185 28.1604 15.9903 28.0388 15.1746C28.0007 14.9156 27.9664 14.665 27.9359 14.4269H28.0959C28.1435 14.8178 28.1435 15.214 28.0959 15.6049C28.0497 15.9825 27.8774 16.3278 27.6123 16.574C27.494 16.6895 27.3502 16.7691 27.1953 16.805C27.0403 16.8409 26.8795 16.8318 26.7288 16.7787C26.4762 16.6744 26.2638 16.4783 26.1271 16.2231C25.9495 15.8621 25.8653 15.4548 25.8833 15.0451C25.8764 14.8985 25.884 14.7514 25.9062 14.6065C25.9285 14.7444 25.94 14.8842 25.9405 15.0243C25.9461 15.4171 26.0417 15.802 26.2185 16.1437C26.3471 16.3676 26.54 16.5381 26.7668 16.6283C26.8978 16.6747 27.0377 16.6814 27.1718 16.6475C27.3059 16.6137 27.4292 16.5406 27.5285 16.4361C27.7623 16.2102 27.9127 15.8981 27.9512 15.5589C27.9948 15.1831 27.9948 14.8027 27.9512 14.4269L28.1111 14.4019C28.1416 14.6441 28.1797 14.8948 28.2139 15.1537C28.3399 15.9816 28.3732 16.8233 28.313 17.66C28.2982 18.3625 28.0689 19.0391 27.6618 19.5815C27.4843 19.7777 27.2527 19.904 27.003 19.9408C26.817 19.97 26.6273 19.9425 26.4546 19.8614C26.3463 19.8107 26.2518 19.7301 26.1804 19.6275C26.1156 19.5523 26.1004 19.5105 26.1042 19.5063Z" fill="#FAFAFA"/>
<path d="M31.4551 19.1012C31.4551 19.1012 31.3827 19.214 31.1847 19.214C31.0465 19.2009 30.9153 19.142 30.8084 19.0449C30.7016 18.9479 30.6243 18.8174 30.5868 18.6709C30.5337 18.4761 30.5156 18.2718 30.5335 18.0694C30.5335 17.8522 30.5868 17.6308 30.5754 17.4136C30.5734 17.3074 30.5458 17.2036 30.4954 17.1129C30.4432 17.0256 30.363 16.9631 30.2708 16.9374C30.088 16.8998 29.9509 17.1421 29.8899 17.3886C29.7578 17.9827 29.7205 18.5975 29.7795 19.2056H29.6348C29.5891 18.5832 29.5548 18.0653 29.5358 17.7018C29.5167 17.5103 29.5167 17.317 29.5358 17.1254C29.5865 17.3102 29.6172 17.5008 29.6272 17.6935C29.6729 18.0527 29.7262 18.5707 29.7871 19.1889H29.6424C29.5699 18.561 29.6035 17.9238 29.7414 17.3092C29.766 17.158 29.822 17.015 29.9052 16.8915C29.9485 16.8272 30.0065 16.7767 30.0734 16.7452C30.1404 16.7136 30.2137 16.7021 30.286 16.7119C30.4123 16.7493 30.5234 16.8323 30.6015 16.9475C30.6795 17.0627 30.72 17.2033 30.7163 17.3468C30.7098 17.5736 30.6895 17.7997 30.6554 18.0235C30.6356 18.2092 30.6459 18.3973 30.6858 18.579C30.7127 18.7077 30.7737 18.8248 30.8611 18.9155C30.9485 19.0062 31.0585 19.0664 31.1771 19.0887C31.2678 19.1153 31.3627 19.1196 31.4551 19.1012Z" fill="#FAFAFA"/>
<path d="M40.4124 72.3519C40.4124 72.3519 39.1862 70.681 37.5525 70.3051C35.9188 69.9291 33.9347 70.9442 33.1769 70.3051C32.4191 69.666 29.9666 69.2942 29.6772 70.2174C29.3877 71.1405 29.7952 72.2266 31.4251 72.3519C32.489 72.4473 33.5437 72.6401 34.5783 72.9283C34.5783 72.9283 25.8842 78.8181 25.4158 79.4572C24.9474 80.0964 24.4828 80.7355 24.8941 81.2492C25.3054 81.763 26.8782 80.4806 26.8782 80.4806L30.8425 79.9669C32.0922 80.2667 33.3738 80.375 34.6506 80.2885C36.4024 80.0963 38.2684 78.6887 38.2684 78.6887L42.3508 77.9827C42.3508 77.9827 43.2114 73.4421 40.4124 72.3519Z" fill="#BF6E65"/>
<path d="M27.0643 80.4053C27.0833 80.4053 27.0643 80.3009 27.0643 80.1296C27.0884 79.8878 27.1802 79.6602 27.327 79.478C27.8789 78.9149 28.5784 78.5569 29.3263 78.4546C30.0826 78.3298 30.8498 78.3059 31.6112 78.3836C31.9304 78.4322 32.2535 78.442 32.5747 78.4128C32.2717 78.288 31.9534 78.2134 31.6303 78.1914C30.8532 78.056 30.0615 78.056 29.2844 78.1914C28.4838 78.2992 27.7434 78.7134 27.1938 79.361C27.0392 79.5819 26.9609 79.8557 26.9729 80.1338C26.9919 80.3218 27.049 80.4137 27.0643 80.4053Z" fill="#8B4A41"/>
<path d="M29.7837 77.9449C29.8141 78.0076 30.4577 77.6818 31.2155 77.2139C31.9734 76.7461 32.5598 76.3117 32.5255 76.249C32.4913 76.1863 31.8515 76.508 31.0937 76.9758C30.3358 77.4437 29.7494 77.8781 29.7837 77.9449Z" fill="#8B4A41"/>
<path d="M33.9882 74.5615C33.9539 74.503 33.3826 75.0377 33.1999 75.9901C33.0171 76.9424 33.3255 77.686 33.3788 77.6609C33.4322 77.6359 33.2646 76.9216 33.4398 76.0611C33.6149 75.2006 34.0453 74.6158 33.9882 74.5615Z" fill="#8B4A41"/>
<path d="M108.484 43.1117L95.9207 39.8744L94.7363 37.6772L82.1351 37.8986L79.2066 41.3364L70.8096 45.8561L77.8585 78.3169L101.511 79.6494L108.484 43.1117Z" fill="#263238"/>
<path d="M42.1291 69.2815L51.6495 70.2756C52.869 69.9025 54.1583 69.9025 55.3777 70.2756C57.2056 70.9273 60.1417 68.5755 60.1417 68.5755L64.285 61.7918C64.285 61.7918 66.113 47.861 68.257 46.3781C70.401 44.8952 70.5876 44.8325 70.5876 44.8325L74.3577 70.4887L69.3651 79.4696C69.3651 79.4696 64.921 83.9976 63.0969 83.8263C61.2728 83.6551 39.3301 80.3718 39.3301 80.3718L42.1291 69.2815Z" fill="#40916C"/>
<path d="M98.81 40.4507L94.621 37.251L95.7025 42.2302L89.2705 68.5839C89.2705 68.5839 89.8912 88.3168 89.6513 97.0805H111.324L105.566 86.3034L108.692 42.8066L98.81 40.4507Z" fill="#40916C"/>
<path d="M90.4358 97.0807L89.4724 67.7361C89.4724 67.7361 83.5469 60.0669 82.5644 52.3475C81.5818 44.6281 81.2543 40.4885 81.2543 40.4885L82.134 37.5186L78.8514 41.1443C78.8514 41.1443 76.9054 41.8837 76.4903 42.055C74.3347 42.9526 72.2222 43.9704 70.1611 45.1043L74.9137 85.5267C74.9137 85.5267 72.1033 91.972 70.1611 97.1016L90.4358 97.0807Z" fill="#40916C"/>
<path d="M74.5907 81.6165C74.8116 82.9114 74.9943 83.9557 75.1314 84.6784L75.2914 85.5138C75.3055 85.6121 75.3285 85.7087 75.3599 85.802C75.3623 85.7024 75.3533 85.6027 75.3333 85.5055C75.3028 85.2882 75.2647 85.0125 75.2152 84.67C75.101 83.914 74.941 82.8697 74.7468 81.5956C74.347 78.9724 73.7986 75.4009 73.1969 71.4577C72.5952 67.5144 72.0202 63.9179 71.5784 61.328C71.3614 60.0373 71.1748 58.9888 71.0415 58.2704C70.9767 57.9278 70.9234 57.6563 70.8815 57.4349C70.8663 57.3382 70.8434 57.2432 70.813 57.1509C70.8104 57.249 70.8181 57.3471 70.8358 57.4433C70.8701 57.6605 70.9082 57.9404 70.9577 58.2787C71.0719 59.0348 71.2319 60.0749 71.4261 61.3489C71.826 63.9722 72.3705 67.5437 72.976 71.4869" fill="#263238"/>
<path d="M89.7744 73.8389C89.8544 73.7685 89.9283 73.6902 89.9953 73.605L90.5932 72.8949L92.7867 70.2257L100.216 61.0359L100.262 60.9774L100.243 60.9064L99.0626 56.2405C98.8823 55.5443 98.7071 54.8565 98.537 54.177L98.419 54.3566L103.347 54.1478H103.514L103.457 53.9765L100.152 44.2479C99.7442 43.0741 99.4205 42.1301 99.1844 41.4534L98.9178 40.714C98.8899 40.6268 98.8541 40.5429 98.8112 40.4634C98.8235 40.5553 98.8466 40.6452 98.8798 40.7307C98.9382 40.9229 99.0143 41.1735 99.1082 41.4826C99.3291 42.1677 99.6338 43.1201 100.011 44.3064L103.229 54.0893L103.335 53.9097L98.4075 54.1018H98.2438L98.2895 54.2731C98.4621 54.9498 98.636 55.6376 98.8112 56.3366C99.2225 57.9448 99.6186 59.5112 99.9994 61.0025L100.026 60.873L92.6648 70.1129L90.5246 72.8364C90.2923 73.1455 90.1019 73.3878 89.961 73.5757C89.8922 73.6575 89.8297 73.7456 89.7744 73.8389Z" fill="#263238"/>
<path d="M90.3754 97.0849C90.4439 97.0849 90.3144 90.4015 90.0821 82.1892C89.8498 73.9769 89.6061 67.2976 89.5337 67.3018C89.4614 67.3059 89.5909 73.9852 89.8232 82.1975C90.0555 90.4098 90.303 97.0849 90.3754 97.0849Z" fill="#263238"/>
<path d="M78.882 40.9771C78.854 41.0776 78.8361 41.1813 78.8287 41.2862C78.7983 41.5159 78.7564 41.8167 78.7069 42.1884C78.6117 43.0239 78.4746 44.1392 78.326 45.5302C77.9985 48.4208 77.5644 52.4267 77.0312 57.0048V57.1928L77.1988 57.1594L79.9293 56.6456L79.7884 56.4451C79.6246 56.8628 79.4456 57.2805 79.2705 57.7233L78.2461 60.2296L78.2118 60.3131L78.2651 60.38L85.8358 70.0083L88.1207 72.8446L88.7414 73.6007C88.8861 73.772 89.8267 74.5489 89.8305 74.5405C89.8343 74.5322 88.909 73.7511 88.7795 73.5673L88.193 72.7778L85.9843 69.8872C84.0802 67.4227 81.4487 64.0392 78.4784 60.1962V60.3424C78.8097 59.5404 79.1524 58.6715 79.5066 57.8361C79.6817 57.4184 79.8607 56.9631 80.0245 56.5579L80.1235 56.3156L79.8874 56.3615L77.1569 56.8837L77.3016 57.0341C77.7815 52.4392 78.2042 48.4416 78.505 45.551C78.6421 44.1392 78.7526 42.9988 78.8325 42.1801C78.8668 41.8083 78.8897 41.5076 78.9087 41.2778C78.909 41.1768 78.9 41.0761 78.882 40.9771Z" fill="#263238"/>
<g opacity="0.3">
<path d="M103.342 54.0306C103.258 54.3272 101.487 54.6238 101.179 55.4425C100.87 56.2612 101.023 57.1969 101.24 58.0491C101.457 58.9012 101.746 59.7659 101.693 60.6514C101.594 62.2388 100.452 63.4752 99.3853 64.5529C96.3997 67.5605 92.759 70.8187 89.7734 73.8387C92.4163 70.142 95.8665 66.3198 98.7874 62.8737C99.2558 62.4023 99.6194 61.8192 99.8499 61.1694C100.082 60.334 99.8499 59.4401 99.629 58.6046C99.3294 57.4907 99.0298 56.3768 98.7303 55.2629C98.6541 54.9789 98.4865 54.4985 98.4447 54.3439C98.8107 54.259 99.1827 54.2086 99.5566 54.1935C100.813 54.039 102.078 53.9776 103.342 54.0098" fill="black"/>
</g>
<path d="M108.689 42.8066C108.689 42.8066 112.825 44.4023 114.119 49.2604C115.414 54.1184 116.404 60.8854 117.707 65.1336C119.009 69.3817 117.981 69.7285 118.712 71.4411C119.443 73.1537 122.448 78.3835 120.148 82.2349C117.848 86.0862 115.555 88.2918 111.248 86.412C108.726 85.3339 106.439 83.6842 104.538 81.5707L108.689 42.8066Z" fill="#40916C"/>
<path d="M111.256 51.6997C111.238 51.8199 111.23 51.9415 111.233 52.0631C111.233 52.3263 111.233 52.673 111.233 53.1074C111.233 53.3372 111.233 53.5878 111.233 53.8635C111.233 54.1392 111.195 54.4358 111.172 54.7574C111.122 55.3965 111.096 56.1317 110.978 56.9337C110.928 57.3514 110.875 57.7691 110.821 58.1868C110.768 58.6046 110.673 59.0766 110.597 59.5486C110.456 60.4885 110.235 61.4784 110.022 62.5269C109.565 64.6155 108.99 66.892 108.373 69.2814C107.756 71.6707 107.204 73.964 106.773 76.0651C106.579 77.1219 106.392 78.1203 106.252 79.0685C106.187 79.5447 106.111 80 106.061 80.4386C106.012 80.8772 105.981 81.3033 105.943 81.7126C105.852 82.5188 105.852 83.2582 105.829 83.9015C105.829 84.2273 105.802 84.5239 105.806 84.8037C105.81 85.0836 105.829 85.33 105.836 85.5598C105.859 85.9775 105.875 86.3409 105.89 86.6041C105.892 86.7261 105.903 86.8477 105.924 86.9675C105.933 86.8452 105.933 86.7222 105.924 86.5999C105.924 86.3367 105.924 85.99 105.924 85.5556C105.924 85.3259 105.924 85.0752 105.924 84.8037C105.924 84.5322 105.951 84.2273 105.962 83.9056C106 83.2665 106.012 82.5314 106.118 81.7293C106.16 81.3116 106.206 80.8939 106.252 80.4762C106.297 80.0585 106.385 79.5864 106.453 79.1144C106.583 78.1746 106.792 77.1804 106.994 76.1278C107.436 74.0392 107.996 71.7543 108.609 69.3649C109.222 66.9756 109.793 64.6907 110.243 62.5937C110.448 61.5411 110.661 60.5428 110.799 59.5945C110.871 59.1225 110.955 58.6714 111.008 58.2286C111.061 57.7858 111.103 57.3681 111.149 56.9755C111.256 56.1693 111.271 55.4299 111.309 54.7866C111.309 54.465 111.347 54.1642 111.351 53.8885C111.355 53.6128 111.351 53.358 111.351 53.1283C111.351 52.7106 111.332 52.3472 111.324 52.084C111.314 51.9535 111.291 51.8246 111.256 51.6997Z" fill="#263238"/>
<path d="M107.535 69.2646C107.535 69.3148 108.148 69.1393 109.142 69.0307C111.742 68.7481 114.358 69.3613 116.625 70.7851C117.49 71.3323 117.973 71.7626 118 71.7208C118.027 71.679 117.901 71.5913 117.684 71.3908C117.379 71.1068 117.055 70.8498 116.713 70.6222C114.449 69.0734 111.763 68.4423 109.119 68.8386C108.723 68.896 108.331 68.9853 107.946 69.1059C107.803 69.136 107.664 69.1895 107.535 69.2646Z" fill="#263238"/>
<path d="M59.4648 69.2066C59.4648 69.2484 59.8914 69.5241 60.554 70.042C62.2799 71.4451 63.6435 73.3164 64.5107 75.4723C64.842 76.3078 64.9905 76.8341 65.0286 76.8216C65.0667 76.809 65.0286 76.6796 64.9715 76.4289C64.8927 76.0784 64.7935 75.7337 64.6744 75.3972C63.8771 73.154 62.474 71.2316 60.653 69.8875C60.3805 69.6849 60.0955 69.5034 59.8 69.3445C59.5905 69.2442 59.4725 69.1899 59.4648 69.2066Z" fill="#263238"/>
<path d="M91.7429 7.25069C93.0376 6.34842 93.3499 4.25566 92.6492 2.76024C91.9485 1.26482 90.4595 0.358372 88.9439 0.0910332C87.8413 -0.0944591 86.7144 0.00906842 85.6554 0.393144C84.5963 0.777219 83.6352 1.43093 82.8508 2.30075C82.0168 3.24479 81.3275 4.47705 80.2079 4.9073C79.2102 5.28742 78.1096 4.94489 77.0624 5.09527C75.661 5.2916 74.4614 6.38602 73.7416 7.72271C73.0712 9.09231 72.6691 10.6005 72.5611 12.1505C72.4088 13.5666 72.306 15.1163 71.4187 16.148C70.5314 17.1798 69.168 17.3678 68.0865 18.0821C67.0933 18.8028 66.3958 19.9204 66.1426 21.1968C65.8894 22.4732 66.1004 23.8076 66.7308 24.9159C67.1573 25.601 67.7742 26.2317 67.8237 27.063C67.8694 27.819 67.4239 28.4957 67.2144 29.2226C66.6737 31.0856 68.0675 33.3037 69.8497 33.3997C70.7484 33.4582 71.7119 33.0739 72.5154 33.5167C73.3189 33.9595 73.616 35.0121 74.1263 35.8183C74.6528 36.5973 75.4072 37.1543 76.2633 37.3961C77.1195 37.638 78.0254 37.5499 78.8294 37.1466C79.4882 36.7916 80.1127 36.2026 80.8477 36.2569C81.5827 36.3112 82.1615 37.0004 82.8813 37.1508C83.8257 37.3513 84.7244 36.5869 85.2842 35.7306C85.844 34.8743 86.2401 33.8634 86.956 33.1658C87.9004 32.2468 89.2409 32.0171 90.4138 31.5701C91.7335 31.0712 92.9402 30.2672 93.9521 29.2126C94.9641 28.1579 95.7578 26.8772 96.2795 25.457C96.8012 24.0368 97.0388 22.5103 96.9762 20.9807C96.9136 19.451 96.5523 17.954 95.9166 16.5908" fill="#263238"/>
<path d="M94.5643 40.4509L94.7509 30.3171L96.5064 13.22C96.5321 12.6314 96.3554 12.0536 96.0113 11.601C95.6671 11.1485 95.1806 10.8542 94.648 10.7764L83.3568 7.27173C79.7276 6.73288 77.1761 11.5784 76.841 15.5801C76.4602 20.0288 76.1784 25.4716 76.5745 28.8092C77.3666 35.5261 82.0163 36.5202 82.0163 36.5202L81.8526 40.7768L88.8787 46.959L94.5643 40.4509Z" fill="#BF6E65"/>
<path d="M78.2085 20.5675C78.2011 20.791 78.2733 21.0088 78.4098 21.1748C78.5463 21.3409 78.7363 21.4422 78.9397 21.4573C79.1388 21.4759 79.3366 21.408 79.4905 21.2681C79.6444 21.1282 79.742 20.9276 79.7623 20.7095C79.769 20.5984 79.7553 20.487 79.7222 20.3818C79.6891 20.2765 79.6371 20.1796 79.5693 20.0967C79.5016 20.0138 79.4194 19.9466 79.3276 19.8991C79.2358 19.8515 79.1363 19.8246 79.0349 19.8198C78.8351 19.8 78.6363 19.8674 78.4816 20.0074C78.3269 20.1474 78.2288 20.3486 78.2085 20.5675Z" fill="#263238"/>
<path d="M77.8463 18.4496C77.9415 18.5624 78.547 18.1029 79.3695 18.1322C80.1921 18.1614 80.8167 18.6376 80.9119 18.5499C81.0071 18.4622 80.8624 18.2951 80.5996 18.0737C80.2421 17.7861 79.8128 17.6257 79.3695 17.6142C78.9328 17.6005 78.5034 17.7395 78.1433 18.011C77.892 18.199 77.8006 18.3953 77.8463 18.4496Z" fill="#263238"/>
<path d="M86.1293 20.7721C86.1232 20.8832 86.1373 20.9945 86.1709 21.0995C86.2045 21.2046 86.2569 21.3012 86.325 21.3837C86.3932 21.4661 86.4756 21.5329 86.5676 21.5799C86.6595 21.627 86.7591 21.6534 86.8605 21.6577C87.0596 21.6763 87.2575 21.6084 87.4113 21.4685C87.5652 21.3287 87.6628 21.128 87.6831 20.91C87.6892 20.7992 87.6752 20.6882 87.6419 20.5835C87.6085 20.4787 87.5564 20.3823 87.4887 20.2999C87.421 20.2174 87.339 20.1506 87.2475 20.1033C87.156 20.056 87.0568 20.0292 86.9557 20.0244C86.756 20.0046 86.5572 20.072 86.4024 20.212C86.2477 20.352 86.1496 20.5532 86.1293 20.7721Z" fill="#263238"/>
<path d="M86.1068 18.8799C86.202 18.9926 86.8075 18.5332 87.6491 18.5582C88.4907 18.5833 89.0924 19.0678 89.1723 18.9759C89.2523 18.884 89.1267 18.7211 88.8601 18.4997C88.5038 18.2127 88.0758 18.0524 87.6339 18.0402C87.1962 18.0247 86.7655 18.1622 86.4038 18.4329C86.1563 18.6292 86.0611 18.8256 86.1068 18.8799Z" fill="#263238"/>
<path d="M82.8808 25.6218C82.4408 25.4586 81.9842 25.3547 81.5213 25.3127C81.308 25.2793 81.1024 25.225 81.0719 25.0663C81.0597 24.8227 81.1155 24.5808 81.2319 24.3729L81.9135 22.5976C82.8618 20.0913 83.5548 18.0027 83.4634 17.9526C83.372 17.9024 82.5266 19.9242 81.5594 22.4514C81.3309 23.0738 81.11 23.6669 80.9044 24.235C80.7623 24.5159 80.7138 24.8423 80.7673 25.1582C80.7971 25.242 80.8438 25.3175 80.9037 25.3789C80.9637 25.4404 81.0355 25.4863 81.1138 25.5132C81.2377 25.5531 81.3656 25.5756 81.4946 25.5801C81.9531 25.6597 82.419 25.6737 82.8808 25.6218Z" fill="#263238"/>
<path d="M82.0166 36.5203C84.8845 36.6574 87.7309 35.9185 90.2385 34.3857C90.2385 34.3857 88.1401 38.918 82.0585 38.1034L82.0166 36.5203Z" fill="#8B4A41"/>
<path d="M85.836 15.0704C85.9121 15.321 86.7537 15.2291 87.7401 15.392C88.7264 15.5549 89.5147 15.8724 89.6441 15.651C89.7051 15.5466 89.5718 15.3043 89.2633 15.0537C88.8421 14.7428 88.3619 14.5414 87.859 14.4646C87.3562 14.3879 86.844 14.4379 86.3615 14.6109C85.9921 14.7571 85.8017 14.9492 85.836 15.0704Z" fill="#263238"/>
<path d="M78.2236 15.2833C78.3683 15.4964 78.951 15.2833 79.6479 15.3084C80.3448 15.3334 80.9313 15.4922 81.0722 15.275C81.1369 15.1705 81.0493 14.9575 80.7942 14.7528C80.4558 14.5055 80.0583 14.3735 79.6517 14.3735C79.2451 14.3735 78.8476 14.5055 78.5092 14.7528C78.2503 14.9659 78.1627 15.1789 78.2236 15.2833Z" fill="#263238"/>
<path d="M85.5128 27.5143C85.669 27.7389 85.7734 28.0016 85.8172 28.2799C85.861 28.5583 85.8429 28.8441 85.7644 29.1132C85.6858 29.3822 85.5493 29.6264 85.3662 29.8251C85.1832 30.0239 84.9592 30.1712 84.7131 30.2545C84.518 30.3274 84.3065 30.3274 84.1114 30.2545C83.9537 30.1578 83.8156 30.0267 83.7056 29.8695C83.5956 29.7122 83.516 29.5319 83.4716 29.3397C83.3574 29.0348 83.247 28.7257 83.1365 28.4208C83.1047 28.3737 83.0858 28.3178 83.0818 28.2594C83.0779 28.2011 83.0891 28.1427 83.1142 28.091C83.1394 28.0394 83.1774 27.9966 83.2238 27.9678C83.2702 27.9389 83.3231 27.925 83.3764 27.9278L85.4481 27.3765" fill="#8B4A41"/>
<path d="M83.9666 30.2587C84.316 30.3128 84.6723 30.2638 84.9987 30.1167C85.38 29.9817 85.7018 29.6958 85.9012 29.3146C86.0173 29.0782 86.0651 28.8087 86.0383 28.5419C86.0245 28.2673 85.9638 27.9981 85.8593 27.7482C85.7573 27.5038 85.6124 27.2837 85.4328 27.1007L85.3719 27.0381L85.2995 27.0673C83.7953 27.6521 82.6338 27.9445 82.6338 28.0155C82.6338 28.0866 83.8562 27.9111 85.3833 27.3472L85.25 27.3138C85.4076 27.4727 85.5368 27.6625 85.6308 27.8735C85.7298 28.0526 85.7908 28.2539 85.8091 28.4624C85.8275 28.6709 85.8029 28.8812 85.7371 29.0778C85.6712 29.2744 85.5658 29.4523 85.4288 29.5981C85.2917 29.744 85.1265 29.8541 84.9454 29.9203C84.3627 30.1751 83.9552 30.2044 83.9666 30.2587Z" fill="#263238"/>
<path d="M72.7364 14.172C72.9881 13.1493 73.5562 12.2544 74.3434 11.6407C74.8088 11.3787 75.2613 11.09 75.6991 10.776C76.5788 9.99489 76.7845 8.64149 77.3252 7.55125C77.6833 6.85108 78.1881 6.25443 78.798 5.81063C79.4078 5.36683 80.1053 5.08862 80.8326 4.999C82.0397 4.86533 83.285 5.26216 84.4617 4.93634C85.33 4.69407 86.0916 4.07585 86.9713 3.89205C88.6888 3.53699 90.2844 4.88622 91.5411 6.23126C91.5411 7.58048 90.5662 8.47858 89.6371 9.34325C89.1625 9.77452 88.6082 10.0875 88.0124 10.2606C87.4167 10.4337 86.7938 10.4628 86.1868 10.3458C85.2462 10.1578 84.2218 9.63565 83.4069 10.1829C82.5919 10.7301 82.5196 12.1712 81.7618 12.8938C80.6802 13.9214 78.9589 12.9565 77.5728 13.4035C76.5103 13.7502 75.8477 14.8613 75.1431 15.797C74.4386 16.7326 73.3838 17.6224 72.3213 17.2757C72.3503 16.2271 72.4896 15.1856 72.7364 14.172Z" fill="#263238"/>
<path d="M85.6115 8.4787C86.3732 8.23643 87.9574 7.69339 88.3687 6.95821C89.2636 5.37089 90.844 4.28483 92.4586 4.3809C93.2946 4.45301 94.0868 4.8199 94.7169 5.42675C95.347 6.03359 95.7812 6.8478 95.9545 7.7477C96.9582 7.78677 97.9336 8.12207 98.7781 8.71828C99.6226 9.31449 100.305 10.1495 100.753 11.1354C100.871 11.3892 100.972 11.6516 101.057 11.9207C101.361 12.5105 101.544 13.166 101.593 13.8414C101.641 14.5168 101.555 15.1956 101.339 15.8305C101.073 16.5908 100.62 17.4387 100.958 18.1572C101.297 18.8757 102.242 18.9091 102.958 19.1806C103.577 19.4354 104.095 19.9213 104.42 20.553C104.745 21.1847 104.857 21.9219 104.736 22.6351C104.637 23.1405 104.416 23.646 104.512 24.1556C104.607 24.6652 105.026 25.0579 105.342 25.4714C105.737 25.9878 106.002 26.6091 106.11 27.273C106.217 27.937 106.164 28.6203 105.956 29.2547C105.747 29.8891 105.39 30.4523 104.921 30.8879C104.452 31.3236 103.886 31.6164 103.281 31.7371C102.737 31.8457 102.139 31.8207 101.667 32.1549C101.126 32.5224 100.905 33.2409 100.524 33.8007C100.144 34.3288 99.6271 34.7186 99.0414 34.9191C98.4557 35.1196 97.8284 35.1214 97.2417 34.9243C97.0078 34.8372 96.7861 34.7149 96.5829 34.5609C96.2021 35.1206 95.6423 35.4966 94.656 35.4966L94.8844 21.4028C94.8156 21.5734 94.7105 21.7235 94.578 21.8405C94.4456 21.9575 94.2895 22.038 94.1228 22.0754C92.0626 22.585 91.7617 17.9233 92.2187 16.6451C91.4423 15.9452 90.7477 15.1426 90.1509 14.2557C89.5835 13.3326 89.0808 10.8179 89.2027 9.6859C88.4524 9.73185 85.284 8.58731 85.6115 8.4787Z" fill="#263238"/>
<path d="M94.3278 22.5266C94.3925 21.0939 95.9881 20.7889 97.123 21.5032C97.7437 21.9209 98.2198 22.6895 98.1626 24.21C98.0103 28.266 94.3278 27.2635 94.3278 27.134C94.3278 27.0045 94.2516 24.1975 94.3278 22.5266Z" fill="#BF6E65"/>
<path d="M95.5127 25.6677C95.5127 25.6677 95.5774 25.722 95.6841 25.7805C95.8339 25.86 96.0061 25.872 96.1639 25.8139C96.5447 25.676 96.9255 25.0077 96.9598 24.2767C96.9816 23.9297 96.9335 23.5817 96.8189 23.2575C96.7876 23.1299 96.7292 23.0122 96.6485 22.9142C96.5677 22.8162 96.4669 22.7405 96.3543 22.6935C96.2817 22.6715 96.2044 22.6773 96.1351 22.71C96.0659 22.7426 96.0089 22.8002 95.9735 22.8732C95.9202 22.9818 95.943 23.0653 95.9202 23.0695C95.8973 23.0737 95.844 22.9985 95.8821 22.8314C95.9054 22.7324 95.9592 22.6453 96.0344 22.5849C96.1401 22.5054 96.2698 22.474 96.3962 22.4972C96.5466 22.5371 96.6852 22.6188 96.7986 22.7343C96.912 22.8499 96.9963 22.9955 97.0436 23.1572C97.1899 23.5148 97.2527 23.9067 97.2264 24.2976C97.1731 25.1121 96.7618 25.8598 96.221 26.006C96.1203 26.033 96.0155 26.035 95.914 26.0118C95.8126 25.9887 95.7171 25.9411 95.6346 25.8724C95.5127 25.7679 95.5127 25.676 95.5127 25.6677Z" fill="#8B4A41"/>
<path d="M90.7148 7.38428C91.0028 7.54688 91.2539 7.77809 91.4498 8.06098C91.8306 8.61654 91.9563 9.67336 91.724 10.868V10.9683L91.8154 10.9933C92.3467 11.1505 92.8378 11.4399 93.2506 11.8391C93.6634 12.2383 93.9867 12.7365 94.1955 13.295C94.3104 13.6105 94.3748 13.9454 94.3859 14.2849C94.3783 14.6459 94.3401 15.0053 94.2717 15.3585C94.1982 15.7383 94.1511 16.1237 94.1308 16.5114C94.1037 16.9344 94.207 17.3551 94.424 17.706C94.8848 18.4746 95.6236 18.8506 96.2557 19.2182C96.8871 19.5206 97.4676 19.9371 97.9732 20.4504C98.8107 21.3504 99.3049 22.5659 99.3556 23.8507C99.381 24.7171 99.2137 25.5773 98.8681 26.3569C98.6206 26.9083 98.415 27.1924 98.4378 27.1924C98.4974 27.1394 98.5499 27.0775 98.594 27.0086C98.7362 26.8203 98.8636 26.619 98.9748 26.4071C99.3679 25.6235 99.5675 24.7408 99.5536 23.8465C99.5282 22.5005 99.0287 21.2175 98.1598 20.2666C97.6401 19.7278 97.0415 19.2886 96.389 18.9675C95.753 18.6041 95.0562 18.2282 94.6563 17.5515C94.2488 16.9374 94.4316 16.1313 94.5382 15.4044C94.6088 15.0347 94.6471 14.6585 94.6525 14.2808C94.6386 13.909 94.5651 13.5427 94.4354 13.1989C94.2111 12.6052 93.8625 12.0776 93.418 11.6589C92.9734 11.2402 92.4453 10.9421 91.8763 10.7887L91.9449 10.914C92.1658 9.66083 91.9906 8.56641 91.5641 7.98996C91.3997 7.76727 91.186 7.59466 90.9433 7.48871C90.8719 7.4425 90.795 7.40736 90.7148 7.38428Z" fill="#455A64"/>
<path d="M108.324 65.8395C107.478 66.5306 106.599 67.1693 105.688 67.7527C105.094 68.0325 103.518 69.5697 103.137 71.1571C102.756 72.7444 101.732 73.538 101.393 74.2816C101.054 75.0251 101.054 78.1079 101.096 78.8765C101.138 79.6451 99.0545 81.3828 98.925 81.7211C98.7956 82.0595 98.628 82.8406 99.1802 83.0286C99.4199 83.1259 99.6781 83.1555 99.931 83.1146C100.184 83.0737 100.423 82.9637 100.627 82.7946C100.924 82.4688 102.151 81.2992 102.151 81.2992C102.151 81.2992 102.025 82.7487 102.448 82.8406C102.814 82.8907 103.185 82.8907 103.552 82.8406L105.129 80.2758C105.129 80.2758 105.509 82.0929 106.191 81.9091C106.873 81.7253 107.295 81.5331 107.383 80.4136C107.479 79.5686 107.664 78.7387 107.935 77.9408V77.0093C107.935 77.0093 108.826 78.2207 109.508 78.0369C110.19 77.8531 110.487 77.4771 110.529 77.2014C110.472 76.214 110.33 75.2347 110.102 74.2774C109.864 73.4817 109.58 72.7032 109.253 71.9465C109.253 71.9465 108.872 69.8914 109.295 69.1019C109.717 68.3124 112.101 66.0693 112.398 65.3216C112.695 64.5739 113.122 63.4544 112.101 63.0367C111.081 62.6189 109.794 64.7159 108.324 65.8395Z" fill="#BF6E65"/>
<path d="M103.339 72.1928C103.339 72.2179 103.48 72.385 103.792 72.5646C104.202 72.7906 104.65 72.9227 105.108 72.9528C105.567 72.983 106.026 72.9106 106.458 72.74C106.789 72.6022 106.964 72.456 106.953 72.4268C106.941 72.3975 106.142 72.7609 105.113 72.6857C104.085 72.6105 103.373 72.1176 103.339 72.1928Z" fill="#8B4A41"/>
<path d="M102.299 81.4663C102.356 81.5081 102.68 81.0486 102.92 80.3928C103.16 79.737 103.148 79.1396 103.083 79.1396C103.019 79.1396 102.901 79.6702 102.703 80.3051C102.505 80.94 102.242 81.4246 102.299 81.4663Z" fill="#8B4A41"/>
<path d="M105.09 80.3301C105.147 80.3635 105.414 79.8664 105.532 79.1814C105.65 78.4963 105.581 77.9282 105.532 77.9282C105.416 78.3174 105.341 78.7195 105.307 79.1271C105.174 79.7787 105.033 80.3009 105.09 80.3301Z" fill="#8B4A41"/>
</svg>
